<mxfile host="app.diagrams.net" modified="2023-04-25T07:16:09.111Z" agent="Mozilla/5.0 (Macintosh; Intel Mac OS X 10_15_7) AppleWebKit/537.36 (KHTML, like Gecko) Chrome/112.0.0.0 Safari/537.36" etag="DR6vnBIJf3n2FeN99GT2" version="21.2.1" type="github">
  <diagram id="2QAxnkbhf2JN3NQYo5zO" name="Page-1">
    <mxGraphModel dx="2089" dy="664" grid="1" gridSize="10" guides="1" tooltips="1" connect="1" arrows="1" fold="1" page="1" pageScale="1" pageWidth="827" pageHeight="1169" math="0" shadow="0">
      <root>
        <mxCell id="0" />
        <mxCell id="1" parent="0" />
        <mxCell id="4QHC4_HjXMX8FYTvqgUU-94" value="发生认证后此时会处理sessionId问题，将新产生的sessionId回写至前端" style="rounded=1;whiteSpace=wrap;html=1;" parent="1" vertex="1">
          <mxGeometry x="1260" y="3200" width="430" height="140" as="geometry" />
        </mxCell>
        <mxCell id="4QHC4_HjXMX8FYTvqgUU-90" style="edgeStyle=orthogonalEdgeStyle;curved=1;rounded=0;orthogonalLoop=1;jettySize=auto;html=1;" parent="1" source="4QHC4_HjXMX8FYTvqgUU-88" target="4QHC4_HjXMX8FYTvqgUU-89" edge="1">
          <mxGeometry relative="1" as="geometry" />
        </mxCell>
        <mxCell id="4QHC4_HjXMX8FYTvqgUU-88" value="" style="rounded=1;whiteSpace=wrap;html=1;" parent="1" vertex="1">
          <mxGeometry x="1730" y="2980" width="710" height="880" as="geometry" />
        </mxCell>
        <mxCell id="4QHC4_HjXMX8FYTvqgUU-57" value="正常" style="edgeStyle=orthogonalEdgeStyle;curved=1;rounded=0;orthogonalLoop=1;jettySize=auto;html=1;" parent="1" source="4QHC4_HjXMX8FYTvqgUU-54" target="4QHC4_HjXMX8FYTvqgUU-55" edge="1">
          <mxGeometry relative="1" as="geometry" />
        </mxCell>
        <mxCell id="4QHC4_HjXMX8FYTvqgUU-58" value="异常" style="edgeStyle=orthogonalEdgeStyle;curved=1;rounded=0;orthogonalLoop=1;jettySize=auto;html=1;entryX=0;entryY=0.5;entryDx=0;entryDy=0;" parent="1" source="4QHC4_HjXMX8FYTvqgUU-54" target="4QHC4_HjXMX8FYTvqgUU-56" edge="1">
          <mxGeometry relative="1" as="geometry" />
        </mxCell>
        <mxCell id="4QHC4_HjXMX8FYTvqgUU-54" value="" style="rounded=1;whiteSpace=wrap;html=1;" parent="1" vertex="1">
          <mxGeometry x="805" y="2970" width="270" height="250" as="geometry" />
        </mxCell>
        <mxCell id="4QHC4_HjXMX8FYTvqgUU-42" value="" style="verticalLabelPosition=bottom;verticalAlign=top;html=1;shape=mxgraph.basic.patternFillRect;fillStyle=diagRev;step=5;fillStrokeWidth=0.2;fillStrokeColor=#dddddd;" parent="1" vertex="1">
          <mxGeometry x="80" y="2700" width="500" height="490" as="geometry" />
        </mxCell>
        <mxCell id="4QHC4_HjXMX8FYTvqgUU-2" value="" style="shape=image;verticalLabelPosition=bottom;labelBackgroundColor=#ffffff;verticalAlign=top;aspect=fixed;imageAspect=0;image=data:image/png,iVBORw0KGgoAAAANSUhEUgAAA1gAAAFoCAYAAABKelosAAAgAElEQVR4Ae2dXZMcx3Wm/XccHHwMABLQYGYwAAgCED8GAjQEJZIgCZkLUxZI2oJISAIpEoTAlSCRIEVrSNCUZOyGDUU4TFqOgBiBm72Bbr2/YsNrR9ixvtBtbpzqPj3ZOVVdWd1Z2ZVZz0VHdVdl5cfJJ0+et7Kq+k8eeOABwwcbwAAMwAAMwAAMwAAMwAAMwMDsDPwJRpzdiNgQG8IADMAADMAADMAADMAADAgDCCxW8FjBhAEYgAEYgAEYgAEYgAEYCMQAAiuQIbliwRULGIABGIABGIABGIABGIABBBYCi6sVMAADMAADMAADMAADMAADgRhAYAUyJFcruFoBAzAAAzAAAzAAAzAAAzCAwEJgcbUCBmAABmAABmAABmAABmAgEAMIrECG5GoFVytgAAZgAAZgAAZgAAZgAAYQWAgsrlbAAAzAAAzAAAzAAAzAAAwEYgCBFciQXK3gagUMwAAMwAAMwAAMwAAMwAACC4HF1QoYgAEYgAEYgAEYgAEYgIFADCCwAhmSqxVcrYABGIABGIABGIABGIABGEBgIbC4WgEDMAADMAADMAADMAADMBCIAQRWIENytYKrFTAAAzAAAzAAAzAAAzAAAwgsBBZXK2AABmAABmAABmAABmAABgIxgMAKZEiuVnC1AgZgAAZgAAZgAAZgAAZgAIGFwOJqBQzAAAzAAAzAAAzAAAzAQCAGEFiBDMnVCq5WwAAMwAAMwAAMwAAMwAAMILAQWFytgAEYgAEYgAEYgAEYgAEYCMQAAiuQIblawdUKGIABGIABGIABGIABGIABBBYCi6sVMAADMAADMAADMAADMAADgRhAYAUyJFcruFoBAzAAAzAAAzAAAzAAAzCAwEJgcbUCBmAABmAABmAABmAABmAgEAMIrECG5GoFVytgAAZgAAZgAAZgAAZgAAYQWAgsrlbAAAzAAAzAAAzAAAzAAAwEYgCBFciQXK3gagUMwAAMwAAMwAAMwAAMwAACC4HF1QoYgAEYgAEYgAEYgAEYgIFADCCwAhmSqxVcrYABGIABGIABGIABGIABGEBgIbC4WgEDMAADMAADMAADMAADMBCIAQRWIENytYKrFTAAAzAAAzAAAzAAAzAAAwgsBBZXK2AABmAABmAABmAABmAABgIxgMAKZEiuVnC1AgZgAAZgAAZgAAZgAAZgAIGFwOJqBQzAAAzAAAzAAAzAAAzAQCAGEFiBDMnVCq5WwAAM5MLA5cuXDR9sAAMDBnIZ17SDOQoG4jGAwEJgcbUCBmAABsYYkMB6eXmZDzboPQMyFghK4wWl2Bpb58IAAovAiskDBmAABsYYQGAhLhHYAwYQWAT8uQT8tCMuywgsAquxwIoBGHcAYm/s3UUGEFgILAQWAquLvok6MWemwgACC4GFwIIBGICBMQYQWAgsBBYCK5VAlnoiurrIAAKLwGossOoipNQJ5wkDcRlAYCGwEFgILPxuXL+LvfOyNwILgYXAggEYgIExBhBYCCwEFgKLgD+vgJ/+jNufCCwCq7HAigEYdwBib+zdRQYQWAgsBBYCq4u+iToxZ6bCAAILgYXAggEYgIExBnwE1uqRZXPi/KpZf/2QOX11rfjId9knxwjQsUEODMhYSCWgo56IDxjoDgMILAIrJg8YgAEYGGOgTmAdPbNiTr+9Zs78uPwjxyRNDgF2qDacv3nf3Ll9zawvLXXCLm593N9l7V5a2jCXbt83d25e7EQbyuoYeh8CqzsBK+KBvkiJAQQWgdVYYJUSvNQVZwsD7TAwSWCJcKoSVu7+mCJr6cIt89vf/2H06ZKYGQmTAAJLhJDdTvm+eWWjkeApq08qAsvt52na30SEIbDa8TH4buyaOwMILAQWAgsGYAAGxhioElhy69+klStXYEnastsFj59bNRs/XTMbN9bMyW8daiQOyoLj9Sufmzt3b5nz1uqQBOJNhUdZ3m3tW1q6aK7fvW+uX2i2ouUKoaXT18zm3fszt9XNt6zdI2E2hxWsUdl3PzeXTm/ZTO3YlqBGYCEEchcCtK8dxhFYBFZjgRUDrZ2Bhl2xa0oMVAkseb7KFVGLq39q7I97XM5xg3URVodPrpi14yvmyffWth1300/6rQF2l8VUWf213rMKLMm7EEczip6uC6wyEa12VVu2cesiAgvfnZLvpq7d4RWBhcBCYMEADMDAGANVAkteYuEKKPl96Ok9xafsmJyjgbBun7x5eLTv7Adb3/V4k22T4FpXe/QWu7JVD83PTaP7XSHnChP9ff7K58WtfFqG7pdnsEQsaP66lXztNLYN7P32d0kzWtkZCqym9dRnwtx8i7zd2y5vXit9BqvOrpq3axO7jfb3QX5bK5JVbbLPcQXY4Jzx1S47ve93BFZ3AlbEA32REgMILAKrscAqJXipK84WBtphoEpgVd0eOElgyTluMKuiSrZlHzd93W8J4EWoTFrBkFsG71i3l42EifVclD7fY4soCfYvXVgyVUG+igdbqJTVxU2n+dkrWG4dpd1uum35FO2qFyPueXW/1RZ2/eQct21uncvsWnZeWZ/awtPtg02r78rOHYiycUGlbZA62/mVnV+1D4HVjo/Bd2PX3BlAYCGwEFgwAAMwMMZA2wJLg9kycaXiS9P4bu3g3BVaGvTbYkHytYNyTeOeq+Wr0HED9VKh4jwPJnm46TQ/u05aB7uMgYDZElAqVkQ06Gcs/fDZLntfWflufezfWjc3D62f2kh/221w7Toqu8QmckyPF8KtIo0r4vQ8ezvoy/Jn2rQ9RRmWoLbPr/qOwEII5C4EaF87jCOwCKzGAisGWjsDDbti15QYqBJYoW4R1GA2pMDSPFWAjK1WDV8EoYLE3YpAmBSgS94apLuiwxYmks79bddLbxe083PFSXGr21AEqICxy3Tz1zSa97T1tPOtssWoLL0d0cOuk2wyyq9CWKntbCGs+9ytVxp9zXwDkYXAwnen5Lupa3d4RWAhsBBYMAADMDDGQJXACvWSCw2O2xBYkrcbuFcJBq1Hcc5QLLiCR9NMK1z0fFvAFOVVvEXQFgr296p8irys2x+nraddvyp7jezqCKwqm02qsx6TrZQ9WMEav8VP01S1SY/L1n0Gyz6m7WEFqzvBJ0KAvsidAQQWgdVYYJU78LQPpw4D9QxUCaxQr2nX4LctgSX527fW+QTodWlccaFtsIWJ7HN/V6XT8lxxouXIqpW9mlWVj+y3b6HT8/U2vqrz3Hrav7Vu9spZUc5QFGreVem0TN3aeeu+sq19m6dbdpFHxUpXVT0m5VdWftk+VrDq/QU+FRvBwHYGEFgILAQWDMAADIwxUCWwJADt2h8ND4Lr8ZWPMpGhwbYtaIqVDev15qVpLtwa/VeVG+SLsHFXRarEhLu/ShSIjQvBdPuWuX57+zNF2/PZGLzZz7rtbZp6uvkO8hi3q+wr2ltnM1kNtNK4eZcJGXvfYMVp67mzwiZ6e58jstSOeouk5lPGhR5rskVgbQ8cCaaxCQzUM4DAIrAaC6wYNPWDBhtho9wZmCSwJDgVkVX1RkF5VbsckzRNAtlZ0mqQLcG/ftwVEMlfBZSmcYNySaOiaZTGEgoq3Oxjrnhwf2u7yvbbZdn11fa4f54seUk+Wr5udUVJy5qmnmX1c8u6fmEo5iybSJl1di3LW+vadOuWJTawRXPT/OrSI7Dw97n7e9rXDuMILAQWAgsGYAAGxhioE1gSlMrtgvJMlrz44vTVteIj32WfHKsLXDlebSMVSK5wwmbVNmvLNgisdoJPgnrsmjsDCCwCq7HAKnfgaR9OHQbqGfARWG0FtOQ7/vp47BFfVNk2R2DV+wt8KjaCge0MILAQWAgsGIABGBhjAIE136C+uKXOuQ3PDvr5Hq9/EFjbA0eCaWwCA/UMILAIrMYCKwZN/aDBRtgodwYQWPECeFss6fNFZc+G2en4Hq9/EFj4+9z9Pe1rh3EEFgILgQUDMAADYwwgsOIF8IilbtsagdVO8ElQj11zZwCBRWA1FljlDjztw6nDQD0DCKxuB/2Isnj9g8Cq9xf4VGwEA9sZQGAhsBBYMAADMDDGAAIrXgCPWOq2rRFY2wNHgmlsAgP1DCCwCKzGAisGTf2gwUbYKHcGEFjdDvoRZfH6B4GFv8/d39O+dhhHYCGwEFgwAAMwMMaABJV8sAEMDBggAG0nAMWu2DVnBhBYBFZjgVXOsNM2nDkM9IOBtY2DRj7093z7e2VlxXz66adGtvTFfPsC+2N/GIjLAAILgcXEBwMwAANZMfDMjceNfAgo4gYUrr0/+OADc+/ePSNb9xi/59s32B/7w0C7DCCwCKyY+GAABmAgGwZk5er5X5wqPqxitRtATArQnn76afO3f/u3hcCSrfyelJ5j8+srbI/tYSA8AwgsAismPRiAARjIhgFZuVKBxSpW+KDBJxDbu3ev+Yd/+Afz6KOPFgJLtvJb9vucT5r59Bt2x+4wEI4BBBaBFRMeDMAADGTBgL16pSKLVaxwAYNv8PXWW28Z+Uh6uUVQtvY+33xIF7/vsDk2h4EwDCCwCKyyCKxwCGEcAnbEjikzYK9eqcBiFSsu0+5qlQose1UrZcaoe1yesDf2TpUBBBYCC4EFAzAAA8kzULZ6pSKLVaw4QdqOHTuK567s561++9vfjtjS57IkXapBE/WOwxJ2xs6pM4DAIrBiooMBGICB5BkoW71SgcUqVpxg7eWXX659Y6C8UVDSpR48Uf84TGFn7JwqAwgsAismOhiAARhImoFJq1cqsljFaj9Qu3jx4rb/vHL/A0t+S7pUgybq3T5H2Bgb58AAAovAiokOBmAABpJmYNLqlQosVrHmE7TpM1g5BEy0YT4MYXfsniIDCCwCq6QDqxQHHXVmsoCBcAz4rF6pyGIVK5zdfRlGYMW3uW/fkI6+gYH2GEBgIbAQWDAAAzCQLAM+q1cqsFjFai+YqArUEFjxbV7VF+ynL2AgHgMILAKrZAMrHEU8R4GtsXVqDIioSq3OOdYXgYXvyJFr2gTXdQwgsBBYBCEwAAMwkB0DCKxuBEAIrG70Q10wyHH6CQbCMoDAIrDKLrDCSYR1EtgTe6bIAAKrG9za/4OVIkfUuRsc0Q/0Q2oMILAQWAgsGIABGMiOAQQWAVlqARn1hVkYyIcBBBaBVXaBFQ4qHwdFX9KX0zCw+8Fd5rkP1vFtHZjf3P/BmqY/OQc/AAMwkBoDCKwOTECpQUN9cXQwAANdZuDEi2tGPl2uY1/qxjNY+Iq+sE47Yd1mAIGFwCIIgQEYgIEsGNi9b6f56kuHi9Wr3Q/tyqJN9oSd4ncEFkFnitxSZ7idlQEEFoEVQQgMwAAMJMvA0smHzKnvHjPP3njcPPveE8XK1d6l3cm2Z9ZJvWvnI7AIVLvGJPWByRgMILAIrAhEYAAGYCAZBnbsWjAPP7NiHvvOEfON64+aczfXzdmrXzWPPL9qdu3dmUw7YkzwXSgDgUUw2wUOqQMcxmYAgUVgRUACAzAAA91gYOEBs3hgl1n92gFz5KmD5thzK2bjzRPm2Z8/Udz2J28GVEF1/Pwhs/fgYjfqDT+V/YDAIrCNHdhSHsx1gQEEFhNj5cTYBUCpA44SBvJn4MHlRbPxo5Pm+Q9OFatST1171Jy6dKwQWMfPr5oj3zho9j+81zywI39b5MY7/4MFs7kxTXtg2ocBBBYCC4EFAzAAA3NlQFamRGCJ0PKZuEhDgAMDMAADMNBlBhBYBFYENDAAAzAwVwb4U+B8AyX+Byvfvu1ycEvd4G7eDCCwCKzmGljNewBQPk4YBubPAAJr/n3Q1ji4e/euOXToEPMMsQYMwECvGEBgAXyvgG8riCDffANE+rbdvt394C6DwGrXxvNk+KWXXjIff/yxWVhYYK4h3oABGOgNAwgsYO8N7PMMMig73wCSvp2tb0+8uGae+MuH8UOZzkUirERgidBirMw2VrAf9oOBdBhAYGU6qTEI0xmE9BV91UcGdu/bWfwp8DM/e9zIKtbK+gEj+/poi9zbLLcIfvHFF4XIYiULf5c777QPxoUBBBYCi4AGBmAABuIxsPBA8Qp2+W8rWb1SUXXiW4eK/7s684Pj5pEXVs1Xjj9o5E+FCVbyCFZEZP3kJz8xe/bsoU/xNzAAA9kzgMAC8uwhJ0DLI0CjH9PrRxFIB7/6kPnqS4eL/7fatzp4Dfv+o/tKxZOkF2ElAkuE1jfffazwTws7BvsRXOkxUDZun332WfOb3/zGXL161Vy4cMEcP37c7Nq1i7mIeAQGYCAbBhBYwJwNzGUTOfvyCMhy7Ue5XerIUwfNuffXixc9LD+2vxiPp/7qWPFbXv5gf1I7fu7mujn9+iPm6DeXzd6DU/zH1cKA3z0HdheC67kPBnZSmzz5o5OFvR48tGfMTqkdF9sIB325fU7ElIgqEVciskRsffnll+by5ctFf7788svm3r172z4cH9hHbHfgwAHmbuI3GOgwAwisDndOrkEl7UL0wMADZs9XBqJBVmrkOzbp77hYPLCrEJCw0F8Gmoz/v/iLvzC/+93vzA9/+EOEFjEcc0dHGUBgdbRjmjhb0jIpw0BaDOxc3GGe/sljvVq1gNHJjOpq5jM3Hjd7lxDc8DKZF1nBEoElQmvv3r0E2cRyMNAxBhBYHesQJpXJkwr2wT65MLBrD2/My6UvQ7ZDbhWUlay+3C4Y0nZ9zOv99983586dI7gmloOBjjGAwOpYh/RxgqDNiKY+MSDPUS3u54H+PvV5k7aKsPra944ZfSFIk3NJ2z9fKuLqnXfeIbgmloOBjjGAwOpYhzBB9m+CpM/70+c7di4UryLnFrD+9Dnjm75ukwFWOuGrTb7Ie3q+EFgILK56wAAMRGLgocN7jb75jolr+omrD7Y7+OhDRl5+0Ye20sbZxsK+ffuMfLDjbHbEftgvJAMIrEiBVchOIy+cAAykycDaxpJ59NtHCITwu7UMCCfCC2M9zbEes9/kFsEXX3wRVvArMNAhBhBYHeqMmA6Zspi0YSA+AwTN8W2eKueIcVjxZVfEFc9hwYsvL6SLwwoCC4HFFQ8YgIFIDMjtgXKbIBNcnAkuZTtzOymM+PJ78uRJ8+tf/xq/EsmP+/YL6fo9hhFYDEicMgzAQCQGVk8dMPKiCybefk+8Pv0vnDz3wTqsRBqbPn3S1TS7du0yX375JazACgx0iAEEVoc6o6vOm3oRDMIADMBAfAae/8UpAibmaC8G7t2755WOcRx/HGPzftocgYXzxinDAAxEYuCx7/CCC4IN/2DjkedWGZuRxmbqXG5ubsIKrMBAhxhAYHWoM1J38NTfP3DCVv20FSsS/ex3xjv9DgMwAAP9YgCBhcDiigcMwEAkBhBY/ZpgZw2oWMGCF1+G1td5Xs/XVqRjXMVgAIEVKbCK0ZmUgdOAgW4zgMDqdv90bfzAC7z4MskzWLDiywrp4rCCwEJgsXoBAzAQiQEC5jgTWy4BBLzAiy/LCCxY8WWFdHFYQWBFCqwAOg7Q2Bk7d5kBAmb4bMInvMCLLy8ILFjxZYV0cVhBYCGwWL2AARiIxMCh01/B1pFsnUMQgcCKEwjlwAoCC1Zy4DinNiCwmOwJ+GAABmAABjrIAAKLoNk34ERgwYovK6SLwwoCq4OTKvDHgR87Y+fYDPA/WDDXhDneIggvvrzwP1iw4ssK6eKwgsBCYHX+yvXly5cNn/nbAKc8u1NusiIB8/Nnnj6gD+bNAH53dr+LDbHhPBhAYCGwkhBYy8vLhs/8bCBBxjwcVG5lNhVYMD8/5rE9tp83A038Lv+DhYjIbb5MvT0ILARW5wNnmWTmPdH1vfwmE33qTrHN+iOwCNr77ktov/8YaOJ3eQYLgdXm3EXezflCYCGwEFisjtUK2CYTPY642hEjsPyDSwJxbNV3Bpr4XQRWtd9lTsI282AAgYXAQmAhsBBYkfwAAgvR0HfRQPv9xwACC2EwD2FAmWG4Q2BFCqwAdnpgZZJhUvaflNuwVZOJHtarWW/yP1hwP1/m2xhH5EmfNmGgid9lBava7zInYZt5MIDAQmCxgsUKVq2AbTLRz8OR5VgmAotgvEkwTtr8eGnidxFYiIgc58GU24TAQmAhsBBYCKxIfqDJ/2AhsPILmBFB9GkTBpoILP4HC4GVshjJse4IrEiBVY7wxGqTT6C5emTZnDi/atZfP2ROX10rPvJd9smxJpMaabfbq8lEH4uLFMsJ/gzW4aNm+YWLZvW1G2b17Y8Hn9duFPuW5RgXD7ABDCTLAH4X0ZTiPEedB9wisBBYya9gHT2zYk6/vWbO/Lj8I8ckDcHmduHkaxMm+jATfWiBtfrWplm99jfln7c2O8v8+Zv3zZ3b18z60lJn6+g7NlJI1zV7u/Vxf5fZdGlpw1y6fd/cuXmxN8w08bv8D1YYH404wI6hGEBgIbCSFlginKqElbt/HiJr/crn5re//4PZvLKRdFDQZKIP5ZxyzCeUwPr6U98seKoUV0PRJYGqpi0LWtvaV8e9T0DdVt3ayHfpwq1inMtYl0+XxONImAQQtNJv2kbdNvVtZfXx4WF03hwFltvPYoOm7W/CXxO/yzNYCIMc58yU24TAQmAlK7Dk1r9JK1euwJK0ZbcLHj+3ajZ+umY2bqyZk986FEwIaUBw/eatTgVcTSZ4Tdtkok/ZIbZd9xAC68jRo+ad9z7yFliSVs7RvtTtPLn3Cai1nlXbpaWL5vrd++b6hTirYFXliZi8c/eWOW+txkkg3mbgXWUT3/1Vbak73+23pdPXzObd+zO31c23rB7qT+exgjUq++7n5tLpLd7Ujm0J6iZ+F4GFwGp7/iL/ZowhsBBYyQoseb7KFVGLq39q7I97XM5xJ28RVodPrpi14yvmyffWth130/v+liCrCLyGQUisQNC3fk3SNZnoccLVTjiEwPrWn3/HvPvhJyOBtfzOp+bB5181C8fWzY61E2bx1NPm4OX3i9sGpY8lrZzj9vc8ufcJqN36ur81uI01rsrK031dFlOu3eS31rup7cr6rdg346pSWb5uvUciZ8ay3Hx9fpeJaD1PbdmG8GvidxFY1X6XOQnbzIMBBBYCK1mBJS+xcAWU/D709J7iU3ZMztGJUbdP3jw82nf2g63venzarQYeVYFBWVBRuW8YVGheenuOe+Vczz8/vDXRvrKqV5tH5za4ZajJRD8PR5ZKmSH+B+v7V98dE1girhZPv2BW3vzIrFz92Ox/+W2z8uYvxwSWnONyPC/upR7K6frw4sOISSd41uBVj6sg0FsQdb9sVeRo3u4YqBs7Ui+3PB0/VeVpep/g2mf8aX7aLi1f92sbtS+1rfosm/522677JV1VW+w0mv9YXy0tbfXbcLVObartb1pPt976u+gL97bLm9dKn8Gqs6u2y7WJ3Ub7+yC/rRXJqjbZ57gCbHDO+GqXnd73exO/i8BCRKQyD/alnggsBFayAqvq9sBJAkvOcSc3FVWyLfu46X1+66RvB4R33NtLihWurUlYJ3I7nQYwW/ncGt2iosc0CJN6STAhwZkGPFrXwWqaXdbwgXFPkdVkou+L82y7nWJz7T97+87PPxoTWAvHHjcrb3xU+qILOU9WsOQcOw/5Pi/upewRpxZ/OmZUROh40N/FeVe2Xoyhx3VsaPtGeTtibf3K5LGjz9fY5UmdLg1vQWxantZHtj7jb1L5WrZdt8IezstCqtou+20/ofnZtnPrWNTbuQ1zWz66Sj8SXIPbNn3qadenLF/xY3b9ytrm1rmJT7T7R77bwtOu/4DLLd/pnlfYqbhQMJ5G+9MW/2XnTtrXxO8isBBYbc9J5N+MMQQWAqv3AksnuDJxpUGopvHdbruiWfKsghvkaLCweXvrmYa6yX1wztbV1iJQcZ8HGb59yw5WpB11edttbTLR44SrnXCI/8EqF1gfNhZY2r+xuZdyyziV/fa4GfBZ/YyVO360PVV563Hd2mNnFJg7okzTyraqPDlmB+fbLm54jL+68rVsO/CXcou2WiK1qu1uOs3P9glaB7sM20Zanq6u6XYs/VCQ2fv0vEmCyq6f1s3NQ+un9tXfdhukLNevVdlE0mrdpC3u3QB6XP2y/eyVHtPtJFa1PUUZVl/puZO2Tfwu/4NV7XeZk7DNPBhAYCGwkhVYoW4R1AkuVKCpE6oGApK/BgPuJF5M/sOgrggub14cBJnDibjY50zKco4GN25gYAcq2i6d/O1z7O9ugKLn2dsmE/08HFkqZYZ4Bmv7LYKvmN2nz5mVNz40y2/+0uz/9hWzdOkntbcIav/OjXuHa6mPHczqmCkYL0vrrK5oe8rGgH3MZl/Ho46RSWNBx/WkNDo2x1ahndsg7fLlu+RXV76W7YoOt63ub7vdtsDR/Ny22P5G7W+X6eavaTRvzdc+R+rgnjfpd5UtRmUN/aWmc+2pv7Vtbllqk1F+zgUpPa7bQTnjq1N6TLdeafQ18yUsaz7uFr+LMEhlbqOe21lFYCGwkhVYoV5yoZNasEDTeXZAJ3zd6sQv5W4FNINb9raCrcGqlAQHGqxo8KJBoZxfdoVZgx1tlwYidrl6zHfLRL/deU4zoYQQWO5LLlaLl1y8YnYce8IsHDpuFk8/Z5avDFa0pH+rXnKhfT8P7iuDXue2Wamj8ivjx2Zbx4PLdVnemrZq7GgZbl5qo6IeFYLOTjNIN7z9dhi4e+U9FGFV5Wv91RdomW5b3d9V6TQ/t7xBXQdiwv5elU/RXqvPNN+m9bTrXWWvkSByBJbbBq2rbu28dZ+9leMFW84t3Jqmqk16XLaFH68Qatoel1/7/KrvTfwu/4MVxkdP49c5B9uXMYDAQmAlK7BCvaZdJ7cQgeYoCCi5Sll2bBTEXJDXHQ9Elaa7fkGeZ9i6cmpf3dc6uxN7WTDhEyBoflXbJhN9maNh32ACCiGwQr2mXft6HtwXnJYEpGX8aj2FfwlSNWUg+r0AACAASURBVKBWrvW3pivLo27saF6uMNA8Zatp3PLsNPrdvvCh5/nkXZVGfYK9Ki5luW11f2t93P1aJ7ctWo7UY+viz9Zryd18JH/btnp+03ra+WrdXFvofs1bf7vptM26tfPWfWVbaa/wJR83zyKPEl4ln6p6TMqvrPyyfU38Ls9gEeQzz3aLAQQWAitZgSUTUtf+aFivVrqBi06edjAi+zQgKf4ry3r+YxDcfG42LaEm544FmMOr3vZV+apgQid7u15FXa0ytY5l2yYTPU6+2smHEFjSP/rnwV35o+Gm3AunwrIGy8VYKOH7uvUH3dvHjt8LFarylv9vssdO6Ri5cGuboLOD70FwvXURpChLbwWzxlZp3jJ+69JY5btBvvoDe1Wvavy7+6tEgdrqzu1b5vrt7c+/bc9n+8typqmnm+8gj3G7yj6XGR+7unlLGyd9BixvPdc61qeOyFI72n0wSD9+cWxSeZOONfG7CKxqv8uchG3mwQACC4GVtMCSyUlEVtUbBeVV7XJM0kyayEIdGwQG45OznfdoQq4LrIbiyQ7mJB8NKIpAQ8SX8xavScGEfe7ofOvPUe16ut+bTPTzcGSplBlKYGn/rL61Wfpyi0J4vbUZhXmpS1PulVN9dbbwKB/7AoDmq8fs55q0/SoyJI2OFc3bfuW3pLf5LwJiZ+xIGjs/ydMWgO5xLU/HtNbTrovW0y2/yNu6eKLpJpWvF2O0HKmb21b3t+Zbtt8uS9si6bU9tvi089HydbvNRkOBaR93y6/7LeVJGs1DttcvDMWc5Tslnd2vks4VO25Z2pZptm5Zg3ptrfBNk+ekc5r4XQQWIiKVebAv9URgIbCSF1gyQcntgvJMlrz44vTVteIj32WfHJs0iXGs3j5NJvq+OM9p2hnif7DGeD181Cy/cNGsvnbDrL798eDz2o1i37Icq7laz/F69vtmIxVyrnDqmx260N4mfheBhcCaZk7inPa4QWAhsLIQWF2YDHOuQ5OJHocdxmGLzXNmirZ1U9wNbpEbvz2PvppPXzXxuwisMH6X+Qs7hmIAgYXAQmBxlb82kG8y0YdyTjnmE+J/sAh25xPs9sXuxS11zm14fWl719rZxO/yP1gIgxznzJTbhMBCYCGwEFgIrEh+IPQzWF0LCKlPuuJPny9yn2GiT+fXp00EVsqBKHVHHObIAAIrUmCVIzyx2iSTDJP8/CZ5sT0TfZgJEIE1X47xI9g/JQaa+F3+ByuMj44V11BO/v2FwEJgsYLFClatgG0y0TNxVE8cCCwC/JQCfOo6X16b+F2ewar2u8xJ2GYeDCCwEFgILAQWAiuSH0BgzTdgRTBg/5QYQGAhDOYhDCgzDHcIrEiBFcBOD6xMMilNijnWtclED+vVrCOwCPBz9A+0qR2um/hdVrCq/S5zEraZBwMILARWEitYMtHwma8N5uGgciuz6f9gwfx8mcf+2H/eDPj6QAQWIsKXFdLFYQWBhcDqvMBK3RkceHifkU/q7aD+cZwydsbOwsBDx58pPvAADz4MILDgxIcT0sTjBIGFwCLwb5mB068/YuSDY4vn2Lpq6yb/g9XVNlCvOBw/9qP/ZeSDvePYO3U78z9YcJI6w7nVH4HVcnCdGzC0p5kTl5Uree5GPqxiNbNdjqw1eQYrx/bTJr8xIKtXT332x+Ij37Gbn92wE3aCARjoCgMILAQWk3eLDMjKlQosVrFw/AgsGPCZ/GXlSgUWq1gw48MM/4MFJz6ckCYeJwisFoNrQI4Hchdtba9eqchiFavfTCCw+t3/Pn7KXr1SkcUqFtzUscMzWDBSxwjH4zKCwEJgsYLVEgP26pUKLFax4jq4rk0oCKx+978Pj/bqlQosVrHgpo4dBBaM1DHC8biMILBaCq4BOS7IXbN32eqViixWsfrLBgKrv33v46PKVq9UZLGKBTuTGEJgwcckPjgWnw8EFgKLFawWGChbvVKBxSpWfEfXlcmlyf9gdaXO1CMer2WrVyqwWMWK1w8pMo/Ago8Uuc25zgisFoLrnIGhbfVOfNLqlYosVrHq7Qhr2KhPDExavVKRxSoWY6JqTCCwYKOKDfbPhw0EFgKLFazADExavVKBxSrWfBzevCca/gern/3uw92k1SsVWKxiwU8VS/wPFmxUscH++bCBwAocXAPyfEDuit19Vq9UZLGK1T9WpO+7wir16A5/PqtXKrJYxepOvzGG6AsYgIEqBhBYCCwCvoAM+KxeqcBiFat/jhmB1b8+r5p87f0+q1cqsFjFgiGbHf3O/2DBhbLAthssILACBtdA3Q2ou9gPBNawIVzCARw08U8iqpqkJ21/+eIZrP72PeO+m32PwEJgMYFHYIDAupsOMPbEBAdw0IQ5BBa8+PKCwIIVX1ZIF4cVBFaE4BqY48DcZTsTWMOA8AkHcNDETyGw4MWXFwQWrPiyQro4rCCwEFisYEVggMA6jkPr+sTB/2DBQRNGEVjw4ssLAgtWfFkhXRxWEFgRgmtgjgNzl+2MwIKBLvNJ3brJJwKrm/3SxfGCwIKVLnLZ5zohsBBYrGBFYACBxeQnEw3/gwUHTQIOBBa8+PLyq1/9yiwsLDCfR5jPffuEdP0evwgsBiMOOQIDCKx+O1qdaOEADpQFny0CC158OCENnMBA9xhAYEUIrgG/e+DH7hMCaxgQ5uAADnx9z849+82Tn/wnF8CYo70YeOihh8zx48e90voySDr8FQxMzwACC+eNQ47AAIH19E4qJwcPB3Dgy/PBr18yX/3Bl/jnCP7Zt0+6nO5rX/ua+eSTT+AFXmCgIwwgsDrSEV123NRt9qCQwHp2G+bAIRzAgS/HIq5EZPmmJ12/2dq9e7f553/+Z7N3716YIa6DgQ4wgMDqQCcwMeY/MRJY59/HPuMYDuDAh5PFgyfMxl//q5HbBH3SkwauhIH333/fnDt3DmaI62CgAwwgsDrQCUyO+U+OBNb597HPOOZ/sOCgjpOFhR3m8bfvm9Vn3iFIYn5uxICIKxFZdYxxHD8EA+0zgMDCgeOMIzCAwGrfmTFhYOMcGBBhJQJLhFYO7aEN8cal3B74T//0T+bs2bOwE2Feh+14bKdoawQWgxBHHIEBBBaOWCYI/gcLDsoChR2LD5mDX/9e8VILuTVQbhEsS8c++Klj4NChQ+bgwYMFP/v27YOjCPN7XZ9wvJ/jFoHF4MMBR2AAgdVPB+tOrHAAB8LEwq69Zv/JF8yR//YL8/jVP5iNX/5bIa5EZInYcrnhN9w0ZWD//v3md7/7nfnNb35jrl69ai5cuFC8xn3Xrl3wFWHOb9pfpM9vjCOwGGg42wgMEFjn5zynmRDhoD8cyC1+crvf2U/+w8gfBtufs7f+XyGsRGCJ0BLBNQ1PnNMfnqbpaxFT8t9YIq5EZInY+uyzzwrWZP+9e/fM3bt3zUsvvWQWFhZgMEIsME0/ck6a4xyBxYDCqUZggMA6TQcZemKDg35wsHjwePEclTxLJd9Dc0R+/eAoRj/LLYUff/xx8ZHvMcqkDPjtAwMIrAjBdR9Aoo2THSaB9WT79IUfOMifA3m1ujxHJatXvKgi//7OwXfJ6pWsYn3xxRdmaWkJkUVcCAMBGEBgBTBiDg6WNrQbCBBYt2vfVPiFg/w5kD8Hlj8JToVJ6pk/k759zAoWLPiyQrp6VhBYCCwCgQgMEFjXO6M+OGz+Byt/DkRcicjqA8+0MT+e9+zZY9bX1+E3QlzA+Mlv/Nh9isBiEOFIIzCAwMrbkdpOle/97euFnYvmyc1/N3KbIBz0l4OU+15WseTtg7xtEH5T5rgLdUdgRQiuu9DR1GG+zhKBNV/7d4V//gcrbw72Hd0w6+/+C+KKeTVpBn7961+bkydPJt2Grvh86pG3z5/UvwgsJgKcaAQGEFj9dbK2A4aDvDlY+cYb5pFX/x6fGsGn2uOK72HH1TvvvGNefPFFOIZjGJiBAQTWDMbDqYd16jnbk8AaVoRvOMibAxFXIrJy9mW0LW+GpX9FXInIoq/z72v6uL0+RmAhsHCiERggsG7PiaU0QcBB3hzI7YFym2BKTFLXvJmcpn/l9kC5TXCaczkHnmBgwAACK0JwDWw4HAJrGBA/AAd5c3D20/8y8qILfH7e/Zx7/8oLLl555RU4Jj6EgRkYQGDNYLzcnSztCxckEFiHs2XKXMJB3hw89dkfCUiYU2EABmAABgwCCwhwBBEYILDOO7D2FX38D1beHCCw8u5f33GeQ7rvfve7xAYRYoMcWKEN5X4PgcUAwolGYACBVe6AcMzYJScGEFjwnAvP9+7dIzaIEBvkwgvt2O77EFgMIJxoBAYQWNudTx8dMv+DlTcHCKy8+7dPPguBBct94r2NtiKwIgTXbXQceabl/BBYafVXW+MLDvLmAIGVd/+25Re6mC8CC5a7yGVKdUJgIbBYwYrAAIE1k5VMDHCQNwcIrLz7N6Xgbta6IrBgeVaG+n4+AitCcN13yGg/gTUMDCZrBFbeQQsCK+/+7ZMfQ2DBcp94b6OtCCwEFitYERggsGayEgcOB3lzgMDKu3/bCMK6midvEYTlrrKZSr0QWBGC61RgoJ7tOVQC6/ZsmxK3cJA3BwisvPs3JV9DXWERBubLAAILgcUKVgQGCKzn6+i6MtHwP1h5c4DAyrt/u+JHYtSDFSxYjsFZzmUgsCIE1zkDRNv8nDACy89O8ISdUmYAgQW/KfNr151nsGDZ5oHvzXlAYCGwWMGKwAACq7lzytGh8z9YeXOAwMq7f3P0SVVtQmDBchUb7PdjA4EVIbgGRj8Yc7YTAgsGhG84yJsDBFbe/ZvzHOW2DYEFyy4T/G7GBAILgcUKVgQGCKybOaZcHTkc5M0BAivv/s3VL5W1C4EFy2VcsM+fCwRWhOAaIP2BzNVWBNYwIGzDQd4cILDy7t9c56eydiGwYLmMC/b5c4HAQmCxghWBgUeeW8XOEezcdeePwPKfnLrel2X1O/JnHzDOGedZMMBbBPP2VWX+i31h+xyB1ZHJ4PLly4YPNoCBNBnwnZjmKbBgK0226Df6DQbyZMB33iBdWOETy54IrA4JrOXlZcMHG8BAWgxI8OPrsOf5P1hST9hKiy36i/6CgTwZaDJv+M4vpOuWEENgIbAIuhC2MDADA6lMlAisPAM1AnD6FQbSYyCVeQPRNr1oQ2AhsAiuZwiumdjSm9hC91mTiXKe/4OFwILV0OyTH0zBwHQMNJk3EDnTi5x52g6BhcBCYCGwYGAGBppMlPN+BotgaLpgCLthNxiAgZAMNJk35ikSKHt6cYfAQmARXM8QXId0uOSV5gTeZKJEYKXZx4xN+g0GYCAkA03mDUTO9CJnnrZDYCGwEFgILBiYgYEmEyUCiyAtZJBGXvAEA2ky0GTemKdIoOzpxR0CC4FFcD1DcM3klubkFrLfmkyUCCx4CckeecETDKTJQJN5A5EzvciZp+0QWAkJrNUjy+bE+VWz/vohc/rqWvGR77JPjuFosQEMxGegyUTZeYF1+KhZfuGiWX3thll9++PB57Ubxb5lOcbFCGwAAzAAAzMz0GTemKdIoOzpxR0CKxGBdfTMijn99po58+PyjxyTNH0IgM7fvG/u3L5m1peWiva6v9uyQaxy2qo/+bYjvppMlF3/H6zVtzbN6rW/Kf+8tdlZ/8LYnJ3tpdPXzObd++a3v/+D2byyYVKy6dLShrl0+765c/NiZxkt879ds7FbH/d3WRtStX1ZW2LuazJvIHKmFznztB0CKwGBJcKpSli5++chstavfD6alGM4KNvpj5y7JbjaqEO8ci6a68MgRwId+Vy/MBCSbbRrnnnG5qattqYyUUo9q2zw9ae+WRyrFFdD0SXna9qqvNrYX8eK7RPaKH8eeS4txfMFWpYIK2lrLH8Xyq6j+joCa+nCrcKHqi+1L8yFKnvafEZ1DjB3Cf/aRt1qX/rWr6w+PuNqdJ5je99yQ6Rz+1ls0LT9Uo8QdvRtTyrzxjwFSuplI7A6LrDk1r9JK1euwJK0ZbcLHj+3ajZ+umY2bqyZk986VBlo+ToHTafO9frNW2OrSnq8ja2P05+lXA02YgsbDSLdcs/f/NxcOh1eZLXZzrq858HNLExMOrfJRNnF/8E6cvSoeee9j7wFlqSVc1ybzNPHhPAJdcy67Z3196TyovuCYvWqHT8zq518zld/Yq9giQ3v3L1lzg/vdJB8JBCfJvD2qUOINJOYmJS/y7+uRs7aVjffsjqU2b4sXRv7RmXfHWdX7dhUULvtDWXHsrY3mTdSFxp9rT8Cq+MCS56vckXU4uqfGvvjHpdz3AEtwurwyRWzdnzFPPne2rbjbnrf3zJhFZPY8PYSVxz45tMknesEm5zrk1adc4y2aH0GdhyfJPRYW9s221mX9zy4acuOTSbKLj6D9a0//45598NPRgJr+Z1PzYPPv2oWjq2bHWsnzOKpp83By+8Xtw2KDSWtnOPac54+JoRPqGPWbe+sv6vKm4svKPx4XP8zq/3s80eB9nAVRW07q8Cwy4jxXevddO4p47/YN+OqUlm+rh1c27vH2/xdJqK1PLWlLbr1WNW2rL0h7FhWXpN5o68CJfV2I7A6LrDkJRaugJLfh57eU3zKjsk57oB+8ubh0b6zH2x9d9M1/a3OZ5KTHTkt6x5/WcJ3HV/jdBOewVLnqrdL2FeytK6jY9ZVTr1yrMdkq5P0qH72FVGnTZLenhy1LGmrnbd9ZVXTaDl1faBX1ew6Ni3TrovmY5fvlmHbT88dL3NwO5PbzrK8pX113JTZunLfKKgaPIehZdo2HpV5+5o5P7yl1W7TpPbW9UeTibKLAuv7V98dE1girhZPv2BW3vzIrFz92Ox/+W2z8uYvxwSWnOPaJQUf4/oFZViZVnZkq+NBuXO50XGr57i8iX3c8pS5qvI0Ty3btbH72+VW6qJtGpS/9WySXaZdV2mftkG2d4arAdpufda1yM+55W7zysWxZ5+0vW793bz0t2vTogzHp6rN7LaLCB2r881rpfVw5xg7D/3u2rC0POd2TU0za3vVDmJju3+0bWJHO43WWbb2fvu7HFOOtP1N66l97uZb5F1je61jnV017zIGNA97O8hva0Wyqk32OWJTm3X7WNl3rZO237WjnDMod/aLEU3mjdSFRl/rj8DquMCquj1wksCSc1znoaJKtmUfN73Pb3WgOqEPnNl2xyNOq5i4rXvN9VydAKS8Jul0gtPz7N86+dqTvJR3afgs0/qVW6Nb7kYO1K7bcDLVdqkttjnf4URjp9N2admav7R/a9+WGJG89Rw7Hy3T3Wrb7LR6/lb+W0Jja994mUW5Fe10r6BrG2wb27YYHbeulurkZ9dT26L11WNl3Gyvw7D+1q0gWu5WPpP7dcSXVc/CDs7Ve83Xbq/WvWzbZKLsosB65+cfjQmshWOPm5U3Pip90YW0X1aw5BzXFl31Me4Y0N9S//NXtl6WU8VsFTe1fmToH+zyhH31Q2XluWPDtbH9O6gvcMZAYRvnZUIqAHS8aZrCt48ucgzGqd1mTWePpyqbbh/3Q4Fo++cSv1uWX9k+237yvUl5dpu0H7UP7WNN2it1tO2i+dk2dutY1Nvx3dvy0TtLhhcDNV+fetr1KctX+tuuX5md3TqX+dSy89z+kd/KnT2HFjYohPj2eMPOYzCeJqex05e1t0ygSfukPm6d7LzqvjeZN/oqUFJvNwKrJwJLB3uZuNLASNP4bgeBsXVFaXjlsdSJW6tEmr97fuHcfNNZE67tFEeO3Amitcyy7WAysNrhTF56zng55YGEpLXbNaqPVd9taTwmCjmnapLclp++UWtCmXZ+9mSp9bX3FWmdOtp1sdsraavy1mNueg0qbW40f62HTtibt+9vCVWnTpq/bt1+LePLt72aZ9m2yUSZjsD6sLHAUtt01ccoZ8qU1le3LnO6v4wbPWZvbd6UK/sCkp1WvpeV5xsQ6rn2mNH87fE1qkedL6gRWFXljfKfQmC5gavm5faPbRPfeti20EDY7Qu/8rZWADVPe1tVH3uukPRVDLnpND/bBlpPu69t1jR/badux9IP5zR7n543SVDZ9dO6uXlo/dS++ttug5Rl9+Oo7JL5Xo7pcWmLy4ke1zlh0vPJdWNe89KttFftp1u3vZpWtmqTop7OGLPTlX1vMm+kLjT6Wn8EVscFVqhbBHWAhwp+1LGoUx04m+Fk5DhN20lrPYr0zqQ+bTr7PF+H6jpS24lr29wJwrcc2/HrZGPbSdo+FgTVCAW12aS2NS2zsH+JkNQydHJxt7ZNNK3eUqT1rMrb3m/bY2SjMm6GgVthr+FtlhoQFPucSW1Sv9r9p3XVNrjt1N92e/Ucd9tkouyiwNp+i+ArZvfpc2bljQ/N8pu/NPu/fcUsXfpJ7S2Capeu+hjlTPpWGdI6y9Zn3Nvp5XsVb8rVJH7KyhucV3/FfVL+U/kCxxdr29ROVeWpTXU8a5vcoNQde+7vwv6FH9we4Npj0bceVf1k+yrNS/N3t9J3mqaqH2dpr2vjwgYlPln2275ObW7b2LWnphn1XwiBNewf1xajslRke/RjWdtl38AG5XGEHtftoG8mjxWfNJqfbOvsaKe1v49s4MxHdhr3e5N5o68CJfV2I7A6LrBCveRCB3ew4MdaIncnJvltO2HXaWld7EBA9k2bzj7Pd0IcE1QVt1PYbXDrN6kcu10jx+usqI0JrIrJT+2k25BlSp4aHNjtnFSG1kO3mtYOWkbHKgIFsU0ZL7rPrstWUDGYcOXYoMzBaqP0uwYZ2pZJ/WpzMqpnRdCgx322TSbKLv4PlvuSi9XiJRevmB3HnjALh46bxdPPmeUrgxUtsUfVSy7UVl32MVJH5VaY0wC02F/BbCk3w7RVvGkZNs9qH90qs3Ya3adca1p3Oyn/pv5H8rbP0bLsdleV5/q3qvrbeUn+7u+iDh5j0bce2gZ7O6rr8EJOVV5j59TUaZb2SjmuHTQ/mwlJN6jrQEzY37Wubj7FOZZo1nxdrtzzJv2ustfIro7ActugddWtW5bu160cL8aodVu4HpNtVZvsNPY8a++v+l5Wp7KxoeerTVxfoscnbZvMG6kLjb7WH4HVcYEV6jXtOtBDBD8jh1pytabsWOG0nNUJqY/rzBqls8q286lzumXO0nXCmoc7QfiWY+c3sscEgTWyRYmNtN9kq/VyJ0k5Nk2Zmp/dTt1XVsZ4XQaiR9IVZVv9Ydd1PO/hlUkn7SD99mOjQOKC/AHqQFSpPa9fkFs0t65e+vSr3X/aFt/2avqybSoTpdSzrP6hXtOueXfZx2gdZSvMSGCkjCoL+lvTlnJjBa+abnwMVt9CrOknlhfbF5S0x2631tX1C7p/awVrOI4df2fnJe13f8s+zcstQ+01KY2eq/Wwz7G/D/yE+hL/Pqqqk/ojt1y3fe5vrZO7X9vhMqjlVPlbN5/CVlaf6vlN62nnq3VzbaH7NW/97abTNuvWzlv3lW1lXMk4lY+bZ5FHxVjxrYddZlmdquaWqjrZ+U36nsq80VdxFKLdCKyOCywZoF37o2G9auNOAupMXIckTkuckTpgSecGN7KvSTr7yrPrFNUh2/WT8uS3W662ZexKdMWKkm850lYtu2pis4Oxwh763JQlGrb2bwmJqrZNV2Z5gFFahlzJtYIm2xZlbSyb3NTWahtpn/1xudF8i/9Ys8oubHf7c7NpCTWffrXrbJfr0147vfu9yUTZxf/Bkvbonwd35Y+Gm7IifVvnYyTP68M/0pU2b+etfDyUcePDWylXQz9UlF/hZ5R7d2V4sL8lX2AF48q32+7it+Ofyuw+SGc90zoUspN8tpZZarMy31NTj4H/2bLVwN7bxZ9PeaVprH6cpb3FubYfq2CiqL/00e1b5vrt+6P5Re22PZ/tF6ymqaeb7yCPcbvKPnfsldqsrB+ttmtbqrYDn7DFVWGT0bzp7h+MZZs5SV/U35pL3LLc9o7GolXPMrbcfHx+N5k3QgT75PGAiW0DBFYCAksGq4isqjcKyqva5Zik8RnYs6YZONlxh2bnqcG1Cip1Wvo6VnHGtiDQc5um01ep6nn6W/LTAEjL0rrIMXX+xaQgjrMILsbbY5+vV828ynEm/pGDdpy61MEWdWoDu25F/Zz8StvmpGlSZlk7XRuN7GS/Ft8tc3grjW1nN+/CfhVXG4t26W1Xlq3UHrYo0+Bb+6XMdsXE6vRrWf+Vneu2V9NUbZtMlF18Bstu1+pbm6UvtyiE11ubUfyL1KcpK9q3Pj5G+tdnbClfmrftX6SOyuaIF4c3SWOPgSKdxbZ7XMuT/W7+PvUtS+PrC6SerqAra7fsk3L0c/3CdtGiZWoa8QluXu5vbXNpu63gVtP51WMQZGs9ZOva2Le8Sf04S3vL7GCXZdd3NK+W+FDXHtJW2xdLO6epZ1n93LLKGPCxa1ne2r9Nt/ZY1P625wy7/bZN3XLctpXZ0T1n2t9N5o3YwoDywogxBFYiAksGsdwuKM9kyYsvTl9dKz7yXfbJsWkHetvn+TpS33Rt15f8u8tSF/umyUTZdYG1fPioWX7holl97YZZffvjwee1G8W+4piz6tjF/qBO8cavBu1uME8fhO8DbD2bTUOtPIViu8m8geAJI3hi2xGBlZDACjWwY+fjK5x808WuP+XNNrHlbr8mE2XnBRYCqrMXqro4jnQ12V0t6GJdU6/TwNbjt+el3qaY9S9WaUtWQ2PWwS6rybwRWxhQXhhBh8BCYLUeUPgKJ990tpPiO+Jn3gw0mSgRWPA6b16nLV9uw7JvrxrdstahoHXatqVwXjE/OreYplBv6lju85rMGwieMIInth0RWAgsBBZX7VtnIOdJtslEicAqDzZy5iOntkmQr8+4tPl8Sk42m7Ut+nyR+8KGWfPl/Pn6oibzRmxhQHlhBB0CC4FFcI3AgoEZGGgyUXbxf7AItOYbaGF/UzcOOwAAGGdJREFU7A8D/WOgybyB4AkjeGLbEYGFwCK4niG4ZmLs38To9nkqE6XU0607v+EXBmAABuIzkMq8EVuU5FQeAguBRdCFwIKBGRhoMlF29X+wCLDiB1jYHJvDQH8ZaDJv5CQ6+tQWBBYCi+B6huCaCbK/E6T2fZOJkmew4EW5YQsLMNBfBprMG30SJTm1FYHVIYElA44PNoCB9BjwnRTmLbBgKz226DP6DAbyZMB33iAdz2AZIEgTAvqt3X7bf3SfkQ92btfOKdh3ngIrBftQR8ZIHQMr33zT7NyzH3/akYvDdf3FccZ0XxlgBQsnxUTVMgOnX3/EyKevToZ2b02wCKwtW8AFtmjKgAirjb/+V7N2/uf405bnraZ9Q3rGMwyMM4DAwkkxUbXIgKxcSVAtH1axxp1PH50xAgsG+sh9qDaLsHrqsz8WIotVLMZSKK7IB5baYACB1WJw3UaHkWdajkBWrlRgsYqVVt+1Mdbm+T9YbbSHPGE6FgO6eiUCSz6sYsFeLPYoB9amYQCBhcBiBaslBuzVKxVZrGLhqKdx1JwDN31nQFevVGDJrYKsYjEu+j4uaH93xwACq6XgGui7C32svrFXr1RgsYrVby7m+T9YsbinnH4z3kb/u6tXKrJYxYK1NngjT7gKwQACC4HFClYLDJStXqnIYhWrv85bGAjhuMmjvwz1se/d1SsVWKxiMQ76OB5ocxrcI7BaCK6BPw342+ynstUrFVisYvWXDwRWf/u+TX+Tc95Vq1cqsljFYkzlzD9tS5dvBBYCiyvqgRmYtHqlIotVrHSd5iwTHgKrn/0+CzN9P7dq9UoFFqtYjKm+jxHa380xgMAKHFwDejdBj9kvk1avVGCxitVPThBY/ez3mP4np7LqVq9UZLGKxbjKiXvakgfPCCwEFitYARnwWb1SkcUqVh5OtMlkiMDqX5834YO043zUrV6pwGIVa9xucIQ9YGD+DCCwAgbXAD1/oOfdBz6rVyqwWMXqHy/8D1b/+nzePinV8n1Xr1RksYrF2EqVdeqdJ7sILAQWK1gRGNhzYDd2jmBnJqo8Jyr6lX5VBkRQ6Xe2cAEDMNBVBhBYBH1MVjAAAxEYWNtYMksnH8LWEWzd1QmXes0eDCKwZrchHGJDGGifAQQWkz0BXwQGvnH9Uewcwc5dnjTO/OC4+crxB+Gg5xx0mdEU6obAaj8wTIED6ggHXWcAgcVkT8AXgQFebtDvyWDn4g7z7M+fMDt2LTDeIoy3rk+81G96f4DAmt52cIftYCAeAwgsJnsCvggMILDiObUuTiCrpw6YU989xliLMNa62P/UKdz4R2CFsyVcYksYaI8BBBYTPkFfBAYQWO05sRQmCBFXIrJSqCt17DerXe9/BBZ8dp1R6gejwgACK0JwzWBjsD13c92ceHHNLOzkFrG+jYdde3eaZ372uJHbBPvWdtqL7wvNAAILpkIzRX4w1QYDCCwEFkFfBAZ279tpHn5m2SwsLBSB9iMvrBYvPOCZnDwdu/S3COrFA7uK8bVzN+KqjQmMPPMcP5P6FYHVvz6fxAPH4KGrDCCwIgTXXe186jUfxyQrGiKw5K1yz773RLGV3wce3ofYTXQ8ilCWNwSO+vXnTxQCS4QW42w+4wy752l3BFae/cp4pV9zYwCBlWhAlxuIfW2PHZjLCpfYYeWJA0ae2XI/668+3M3jH54yT137qnnkudWifvKnyvJ/T3uXdpsHFkomjYUHipWdA8f2mQcP7SnOWX5sfyE05XX2drsfeW6lOH7s3MrYfk3TlePSdyKYWZks6W98bMFwX31c6HYjsBhjoZkiP5hqgwEEFpM/kz8MzMbAwgOFmNp7cLHIR4TT1753rBBd594fPHsmKzl625w8jyZCSgSJvvhh7/KikfOKW+rKRBl9NFsfYT/slwkDCCyC4TaCYfKEq9AMILAymXRCg0F+OJsQDKiokv+A0hd9cNscbIVgizz6yRECq5/9znin31NjAIGFwOLKLgy0zoDcMrh04sHWy0nNAVNfggYYaMYAAquZveALe8HAfBhAYBFcE/TCAAzAAAzAQOcZWDx4wpz95D86X08C2vkEtNgdu3eJAQQWkyqTFQy0z8DCA8UbE7vk/KgLkzEMpMPAwsIO8/jb983qM++076+YE7AxDMDAjAwgsGY0IBN0OhM0fTXfvpI3/9EH8+0D7I/9U2VAhJUILBFaqbaBejP+YKA/DCCwEFhMVjAQhQERWBs/OmkeXB68bZCJpj8TDX1NX0/LgAgqEVcbH/0fI7cITpsP58EgDMBATAYQWATXTFgwEIUBEVYisJ778JR59sbjgzJ3PGB27eWKdEynT1kEGakwsHjweLFqJStX8j2VelNPxhgMwAACi+CaSQsGojIggmpl/UBR5ldOPGSe+8UpI69xP/PD4+bo08sILniMyiOBUDcCoYWdi2bf4TNm9em3zCOv/p1Zf/d/myc3/71YveK2wG70EWOFfoABfwYQWAQzBDMwMFcGRHCJsBKBJUJLbiV8+qeDFa6Hz60Wv2Wf/enK8SNnD5r1v3rY7NjBKtwsE++uB1fMw9/+G3P2k/808hpuPv2zwdlP/6sQVSKuRGSJ2BLRNQtXnOsfDGIrbAUDYRlAYBFcM4HBAAxMycCBY/sKUSjCUL4zQTWboFRYbfzy/xYCS35jw2Y2xF7YCwZgAAa6xwACa8rACpi7BzN9Qp/MgwFZvZJVrOc/XDdLxxFZvn2wc89+s/HLf0NYMQchqmEABmAgOwYQWECdHdS+AR7pEGQhGRCRJStZ3C7ox9XBr18yX/3Bl/gf5iAYgAEYgIHsGEBgAXV2UIcMmsnLL1jGTg8Uwuqb7z5mDhx7kDHl4VdFXInIgh3GGAzAAAzAQG4MILA8AoHcOp324MhgAAbmyYC8vEDeECe3Cc6zHpTNOIABGIABGGiDAQQWAosABwZgICADZ77P//XUTVb7jm6Y9Xf/Be4Ccldnc44TRMIADMBAPAYQWExwBDkwAAMBGZDXyTOJTZ7EVr7xhnnk1b/HTgG5g7nJzGEf7AMDMBCTAQQWExxBDgzAQEAGEFj1k7iIKxFZMSc7yqrvF2yEjWAABmAgDAMIrICBFVCGgRI7YseUGUBg1fMrtwfKbYIp9zN1r+9nbISNYAAG+soAAguBRZADAzAQkAEEVn1AcfbT/zLyoou+Try0u54RbISNYAAGUmYAgRUwsEoZBOqOI4OBMAwgsOrt+NRnf0RcMffAAAzAAAxkywACC7izhRvBUB/oYqPwNuItgvU2RWDV24ixiY1gAAZgIF0GEFgILAQWDMAADERlAIGVbtBAwEffwQAMwEA9AwgsAquogRWDsn5QYqO0bcQKVn3/IbDqbYQfwEYwAAMwkC4DCCwEFgILBmAgIAM8g1U/ISKw6m1EYIWNYAAGYCBdBhBYAQMrBkK6A4G+o+9CMYDAqmcJgVVvo1A8kg+2hgEYgIH4DCCwEFisXsAADARkAIFVP5EhsOptRECEjWAABmAgXQYQWAEDKwZCugOBvqPvQjGAwKpnCYFVb6NQPJIPtoYBGICB+AwgsBBYrF7AAAwEZACBVT+RIbDqbURAhI1gAAZgIF0GEFgBAysGQroDgb6j70IxwFsE61k68mcfIOqZe2AABmAABrJlAIEF3NnCHSpgJp/6gHneNrp8+bLhgw1mYWDeDFN+9/0MfUQfwQAM+DKAwEJgIbBgIHkGJLBeXl7mgw2mYkD48Z00SUeABQMwAAMwUMcAAovgmsACBpJnAIGFuJxFYCOwCJbqgiWOwwgMwEATBhBYBNfJB9dNgCdtng4SgYXAQmDlObbx2fQrDMBAigwgsBBYCCwYSJ4BBBYCC4FFEJZiEEad4RYG8mQAgUVwnXxwjXPK0zk16VcEFgILgYUfaOIzSAsvMAADbTKAwEJgIbBgIHkGEFgILAQWwVKbwRJ5wxcMwEATBhBYBNfJB9dNgCdtng6ySmCtHT5s/vLyG+aj39wxL1/6/lRvmJslcOfcNISf8INvyNM30K/0KwzAwDwYQGAhsAgsYCB5BsoE1qG1NXP95qa59fdfFJ/X3rpuVs6/bFZf/5lZvXpr8Hn9Z8W+5SMPI756/Ip3BBYB2DwCMMqEOxjIlwEEFsF18sE1DipfB+Xbt2UC69XLb4zE1cf/8x/N+n//zKz++Ffln7c/MctnnslGZJ2/ed/cuX3NrC8tJd+mGG1BYOFDfH0N6WAFBmDAhwEEFgILgQUDyTNQJrB+8es7hcAScXXug/9hTv3sdrm4Gomuz6KIrEIw3L1lzjviZ+n0NbN5977ZvLIxJoqWljbMpdv3zZ2bF8f2T7r9sIkoWbpwy/z2938YfbokzEZtb1ksIrAImHwCJtLACQzAgC8DCCyC6+SDa1/YSZevYywTWC9/7wdGbgt84t3PCnG1+XdfmI33akSWrGSV3C54/Nyq2fjpmtm4sWZOfuuQt9ApE0EiaO7c/dxcOj2+urR+5fNC5LgCR4XX9Qvj6cvy1n2+AkvKvOOIPamfK/I03y5sl5Yumut375sm9qirNwIrX9+A36dvYQAG5sEAAguBhcCCgeQZKBNYElQXz1wNV6hEXH3nr//OPPjCX5odx9bNwqFHzOKpZ8zB778/trIl57gBuQirwydXzNrxFfPke2vbjrvpJ/1WgWCLGF2puX5FVrHGV7eqBNmkMnwEVlk9JuXZlWNabwQWQdM8gibKhDsYgAEfBhBYBNfJB9c+oJMmb4dYJbCKF1qMbgH8ldn3/Ktm8czzZvnNj8zK1U/MgVeumpW3Ph4TWHKOKyaevHl4tO/sB1vf3XQ+v1VM2StVA9Egq1rbV2fKxJKuaumtfXZeUofROcPbDkfprNsMVaj43HpYV56UqfmNyhre1qf7bUE5VsfhrZJa5/POSp7ul+fJdJVPy5Ct5Gunsfugar+dRr6zgpW3f8D/078wAAOxGUBgIbAQWDCQPAOVAuvtT8bE045jT5jlNz4a27ftxRdym6DzRj0VVbIt+7jp6367t+YVq1RDQSKiQMVImThxV7TKBJvkIeLDFl4qkjRvqeMonSW83Lr7lCdpVOzo+VLepQtLI+Fll6tl2/Wrqovst9OpTewVLLeOkn9ZOq2bu0VgEXzFDr4oD+ZgIG8GEFgE18kH1zipvJ2UT/82E1i/aCywNCAvE1cqvjSNz1bFjoqEQkQMRU4hvnT1p1iB2npeS8WUnqdlDfLbSlfk59xqKGldYaf7dEXIXc3yKU/TuOeO6jZ8ZspHYLnPg0keXgJr+CIQu4yB6Bq/3VLr5G4RWPgQHz9DGjiBARjwZQCBhcBCYMFA8gxUCiz5z6uxWwRfMYunz5nlN35R3Bq4/9tXzNKln4ylKbtFUAPyYALLEgTuSostllxBpMJMBZG7VeHlihKtf9lKjx6TcyQ/+wUcPuVpGi1b89Otts8WP3LMraP7W89392t+bnljwtSyr+YzaYvAImjyDZpIByswAAM+DCCwCK6TD659QCdN3g6xSmDZL7kYCK3PzL7nXzE7jz1hFtZOmMUzzxViyxZhZS+50OA8lMCS/EbCoVil2lppsQVEkca6fa9OzGg9R3m7r4KveIOhnjdajRqufvmUV5dG29O2wBrUY7CKZ3/Xtk3aIrDy9g/4f/oXBmAgNgMILAQWAgsGkmegSmDJK9dXneewbDG17XvFa9o1OA8psHQ16frNz8eeMZKyBsLq1rbXkVeJFa2fbovzS24RrBJeep5s7VvrfMqrSzMSbZZQlHLcuri/tU7ufi3PXcHSckTI2atZms+kLQKL4Ct28EV5MAcDeTOAwCK4Tj64xknl7aR8+rdSYMnLKs48Y1Z//Nn4bYDWbYNbIivOHw1roK9CQW7Lc1d3ROS4t+vpeSIe5JgtMIoVG0vAiCgpzrf2aZ563qD8ree2JH8VKfbzVD7llaa5cGtUx0IkWYJP62K/vMIVUtped7/azbVZUX9Zobt9y1y/3ex/shBY+BAfP0MaOIEBGPBlAIGFwEJgwUDyDEwUWCqyJq1kycrVmWe2vT1Qg/y2tiqEVPRoOXrbnS1A9JhsVdCIiCqE1PClGJpGRYm+8lzTbStn+AIKPS7bMuFSV56Uq6JJ87JFmgo3+5jWUV6/Lue7v922aDq3LLu+Kr7KXpah+ZVtEVgETb5BE+lgBQZgwIcBBBbBdfLBtQ/opMnbIdYKLBFZRx4e/PGwvPji6q3B5/WfFfvkWFngzb7lpOyiQs4Wdz59iMDK2z/g/+lfGICB2AwgsBBYCCwYSJ4BL4Hl/LeVT+BNmsQElvNae9/+Q2ARfMUOvigP5mAgbwYQWATXyQfXOKm8nZRP/yKw0hJCvsKnabriNkPruTPf8xFY+BAfP0MaOIEBGPBlAIGFwEJgwUDyDCCw+i2w9BmxqmfW6oQWAougyTdoIh2swAAM+DCAwCK4Tj649gGdNHk7RARWvwVWnYCqO47Ayts/4P/pXxiAgdgMILAQWAgsGEieAQQWAqtORE06jsAi+IodfFEezMFA3gwgsAiukw+ucVJ5Oymf/kVgIbAmCai6YwgsfIiPnyENnMAADPgygMBCYCGwYCB5BhBYCKw6ETXpOAKLoMk3aCIdrMAADPgwgMAiuE4+uPYBnTR5O0QJkPlgg1kYwEfk7SPoX/oXBmAgJgMILAQWAgsGYAAGYAAGYAAGYAAGYCAQAwisQIaMqYopi6swMAADMAADMAADMAADMNBNBhBYCCyuVsAADMAADMAADMAADMAADARiAIEVyJBcQejmFQT6hX6BARiAARiAARiAARiIyQACC4HF1QoYgAEYgAEYgAEYgAEYgIFADCCwAhkypiqmLK7CwAAMwAAMwAAMwAAMwEA3GUBgIbC4WgEDMAADMAADMAADMAADMBCIAQRWIENyBaGbVxDoF/oFBmAABmAABmAABmAgJgMILAQWVytgAAZgAAZgAAZgAAZgAAYCMYDACmTImKqYsrgKAwMwAAMwAAMwAAMwAAPdZACBhcDiagUMwAAMwAAMwAAMwAAMwEAgBhBYgQzJFYRuXkGgX+gXGIABGIABGIABGICBmAwgsBBYXK2AARiAARiAARiAARiAARgIxAACK5AhY6piyuIqDAzAAAzAAAzAAAzAAAx0kwEEFgKLqxUwAAMwAAMwAAMwAAMwAAOBGEBgBTIkVxC6eQWBfqFfYAAGYAAGYAAGYAAGYjKAwEJgcbUCBmAABmAABmAABmAABmAgEAMIrECGjKmKKYurMDAAAzAAAzAAAzAAAzDQTQYQWAgsrlbAAAzAAAzAAAzAAAzAAAwEYgCBFciQXEHo5hUE+oV+gQEYgAEYgAEYgAEYiMkAAguBxdUKGIABGIABGIABGIABGICBQAwgsAIZMqYqpiyuwsAADMAADMAADMAADMBANxlAYCGwuFoBAzAAAzAAAzAAAzAAAzAQiAEEViBDcgWhm1cQ6Bf6BQZgAAZgAAZgAAZgICYDCCwEFlcrYAAGYAAGYAAGYAAGYAAGAjGAwApkyJiqmLK4CgMDMAADMAADMAADMAAD3WQAgYXA4moFDMAADMAADMAADMAADMBAIAYQWIEMyRWEbl5BoF/oFxiAARiAARiAARiAgZgMILAQWFytgAEYgAEYgAEYgAEYgAEYCMQAAiuQIWOqYsriKgwMwAAMwAAMwAAMwAAMdJMBBBYCi6sVMAADMAADMAADMAADMAADgRhAYAUyJFcQunkFgX6hX2AABmAABmAABmAABmIygMBCYHG1AgZgAAZgAAZgAAZgAAZgIBADCKxAhoypiimLqzAwAAMwAAMwAAMwAAMw0E0GEFgILK5WwAAMwAAMwAAMwAAMwAAMBGIAgRXIkFxB6OYVBPqFfoEBGIABGIABGIABGIjJAAILgcXVChiAARiAARiAARiAARiAgUAMILACGTKmKqYsrsLAAAzAAAzAAAzAAAzAQDcZQGAhsLhaAQMwAAMwAAMwAAMwAAMwEIgBBFYgQ3IFoZtXEOgX+gUGYAAGYAAGYAAGYCAmAwgsBBZXK2AABmAABmAABmAABmAABgIxgMAKZMiYqpiyuAoDAzAAAzAAAzAAAzAAA91kAIGFwOJqBQzAAAzAAAzAAAzAAAzAQCAGEFiBDMkVhG5eQaBf6BcYgAEYgAEYgAEYgIGYDCCwEFhcrYABGIABGIABGIABGIABGAjEAAIrkCFjqmLK4ioMDMAADMAADMAADMAADHSTAQQWAourFTAAAzAAAzAAAzAAAzAAA4EYQGAFMiRXELp5BYF+oV9gAAZgAAZgAAZgAAZiMoDAQmBxtQIGYAAGYAAGYAAGYAAGYCAQA/8fsCjgMv87B4gAAAAASUVORK5CYII=;" parent="1" vertex="1">
          <mxGeometry x="-180" y="10" width="856" height="360" as="geometry" />
        </mxCell>
        <mxCell id="4QHC4_HjXMX8FYTvqgUU-8" value="" style="group" parent="1" vertex="1" connectable="0">
          <mxGeometry x="-230" y="422.5" width="300" height="105" as="geometry" />
        </mxCell>
        <mxCell id="4QHC4_HjXMX8FYTvqgUU-7" value="" style="rounded=1;whiteSpace=wrap;html=1;" parent="4QHC4_HjXMX8FYTvqgUU-8" vertex="1">
          <mxGeometry width="290" height="105" as="geometry" />
        </mxCell>
        <mxCell id="4QHC4_HjXMX8FYTvqgUU-3" value="&lt;pre style=&quot;background-color: #2b2b2b ; color: #a9b7c6 ; font-family: &amp;quot;jetbrains mono&amp;quot; , monospace ; font-size: 13.5pt&quot;&gt;AuthenticationManagerBuilder&lt;/pre&gt;" style="text;whiteSpace=wrap;html=1;" parent="4QHC4_HjXMX8FYTvqgUU-8" vertex="1">
          <mxGeometry x="20" y="17.5" width="280" height="70" as="geometry" />
        </mxCell>
        <mxCell id="4QHC4_HjXMX8FYTvqgUU-10" value="" style="group" parent="1" vertex="1" connectable="0">
          <mxGeometry x="140" y="430" width="380" height="90" as="geometry" />
        </mxCell>
        <mxCell id="4QHC4_HjXMX8FYTvqgUU-9" value="" style="rounded=1;whiteSpace=wrap;html=1;" parent="4QHC4_HjXMX8FYTvqgUU-10" vertex="1">
          <mxGeometry width="380" height="90" as="geometry" />
        </mxCell>
        <mxCell id="4QHC4_HjXMX8FYTvqgUU-4" value="&lt;pre style=&quot;background-color: #2b2b2b ; color: #a9b7c6 ; font-family: &amp;quot;jetbrains mono&amp;quot; , monospace ; font-size: 13.5pt&quot;&gt;GlobalAuthenticationConfigurerAdapter&lt;/pre&gt;" style="text;whiteSpace=wrap;html=1;" parent="4QHC4_HjXMX8FYTvqgUU-10" vertex="1">
          <mxGeometry x="20" y="10" width="360" height="70" as="geometry" />
        </mxCell>
        <mxCell id="4QHC4_HjXMX8FYTvqgUU-12" value="" style="group" parent="1" vertex="1" connectable="0">
          <mxGeometry x="-260" y="580" width="430" height="120" as="geometry" />
        </mxCell>
        <mxCell id="4QHC4_HjXMX8FYTvqgUU-11" value="" style="rounded=1;whiteSpace=wrap;html=1;container=1;" parent="4QHC4_HjXMX8FYTvqgUU-12" vertex="1">
          <mxGeometry width="430" height="120" as="geometry" />
        </mxCell>
        <mxCell id="4QHC4_HjXMX8FYTvqgUU-5" value="&lt;pre style=&quot;background-color: #2b2b2b ; color: #a9b7c6 ; font-family: &amp;quot;jetbrains mono&amp;quot; , monospace ; font-size: 13.5pt&quot;&gt;InitializeUserDetailsBeanManagerConfigurer&lt;/pre&gt;" style="text;whiteSpace=wrap;html=1;" parent="4QHC4_HjXMX8FYTvqgUU-12" vertex="1">
          <mxGeometry x="30" y="25" width="400" height="70" as="geometry" />
        </mxCell>
        <mxCell id="4QHC4_HjXMX8FYTvqgUU-14" value="" style="group" parent="1" vertex="1" connectable="0">
          <mxGeometry x="210" y="590" width="550" height="110" as="geometry" />
        </mxCell>
        <mxCell id="4QHC4_HjXMX8FYTvqgUU-13" value="" style="rounded=1;whiteSpace=wrap;html=1;fontStyle=1" parent="4QHC4_HjXMX8FYTvqgUU-14" vertex="1">
          <mxGeometry width="550" height="110" as="geometry" />
        </mxCell>
        <mxCell id="4QHC4_HjXMX8FYTvqgUU-6" value="&lt;pre style=&quot;background-color: #2b2b2b ; color: #a9b7c6 ; font-family: &amp;quot;jetbrains mono&amp;quot; , monospace ; font-size: 13.5pt&quot;&gt;InitializeAuthenticationProviderBeanManagerConfigurer&lt;/pre&gt;" style="text;whiteSpace=wrap;html=1;" parent="4QHC4_HjXMX8FYTvqgUU-14" vertex="1">
          <mxGeometry x="30" y="20" width="500" height="70" as="geometry" />
        </mxCell>
        <mxCell id="4QHC4_HjXMX8FYTvqgUU-15" value="WebSecurity" style="shape=umlLifeline;participant=umlEntity;perimeter=lifelinePerimeter;whiteSpace=wrap;html=1;container=1;collapsible=0;recursiveResize=0;verticalAlign=top;spacingTop=36;outlineConnect=0;" parent="1" vertex="1">
          <mxGeometry x="-200" y="950" width="40" height="580" as="geometry" />
        </mxCell>
        <mxCell id="4QHC4_HjXMX8FYTvqgUU-20" value="build" style="html=1;verticalAlign=bottom;endArrow=block;" parent="4QHC4_HjXMX8FYTvqgUU-15" target="4QHC4_HjXMX8FYTvqgUU-17" edge="1">
          <mxGeometry width="80" relative="1" as="geometry">
            <mxPoint x="20" y="120" as="sourcePoint" />
            <mxPoint x="100" y="120" as="targetPoint" />
          </mxGeometry>
        </mxCell>
        <mxCell id="4QHC4_HjXMX8FYTvqgUU-16" value="AbstractConfiguredSecurityBuilder" style="shape=umlLifeline;participant=umlEntity;perimeter=lifelinePerimeter;whiteSpace=wrap;html=1;container=1;collapsible=0;recursiveResize=0;verticalAlign=top;spacingTop=36;outlineConnect=0;" parent="1" vertex="1">
          <mxGeometry x="-10" y="950" width="40" height="580" as="geometry" />
        </mxCell>
        <mxCell id="4QHC4_HjXMX8FYTvqgUU-23" value="" style="html=1;points=[];perimeter=orthogonalPerimeter;" parent="4QHC4_HjXMX8FYTvqgUU-16" vertex="1">
          <mxGeometry x="15" y="180" width="10" height="160" as="geometry" />
        </mxCell>
        <mxCell id="4QHC4_HjXMX8FYTvqgUU-27" value="&lt;pre style=&quot;background-color: #2b2b2b ; color: #a9b7c6 ; font-family: &amp;#34;jetbrains mono&amp;#34; , monospace ; font-size: 13.5pt&quot;&gt;init&lt;/pre&gt;" style="edgeStyle=orthogonalEdgeStyle;html=1;align=left;spacingLeft=2;endArrow=block;rounded=0;entryX=1;entryY=0;" parent="4QHC4_HjXMX8FYTvqgUU-16" edge="1">
          <mxGeometry relative="1" as="geometry">
            <mxPoint x="15" y="200" as="sourcePoint" />
            <Array as="points">
              <mxPoint x="45" y="200" />
            </Array>
            <mxPoint x="20" y="220" as="targetPoint" />
          </mxGeometry>
        </mxCell>
        <mxCell id="4QHC4_HjXMX8FYTvqgUU-17" value="AbstractSecurityBuilder" style="shape=umlLifeline;participant=umlEntity;perimeter=lifelinePerimeter;whiteSpace=wrap;html=1;container=1;collapsible=0;recursiveResize=0;verticalAlign=top;spacingTop=36;outlineConnect=0;" parent="1" vertex="1">
          <mxGeometry x="220" y="950" width="40" height="580" as="geometry" />
        </mxCell>
        <mxCell id="4QHC4_HjXMX8FYTvqgUU-21" value="" style="html=1;points=[];perimeter=orthogonalPerimeter;" parent="4QHC4_HjXMX8FYTvqgUU-17" vertex="1">
          <mxGeometry x="15" y="120" width="10" height="80" as="geometry" />
        </mxCell>
        <mxCell id="4QHC4_HjXMX8FYTvqgUU-18" value="SecurityBuilder" style="shape=umlLifeline;participant=umlEntity;perimeter=lifelinePerimeter;whiteSpace=wrap;html=1;container=1;collapsible=0;recursiveResize=0;verticalAlign=top;spacingTop=36;outlineConnect=0;" parent="1" vertex="1">
          <mxGeometry x="414" y="950" width="40" height="580" as="geometry" />
        </mxCell>
        <mxCell id="4QHC4_HjXMX8FYTvqgUU-22" value="doBuild" style="html=1;verticalAlign=bottom;endArrow=block;exitX=-0.4;exitY=0.838;exitDx=0;exitDy=0;exitPerimeter=0;entryX=0.6;entryY=0.324;entryDx=0;entryDy=0;entryPerimeter=0;" parent="1" source="4QHC4_HjXMX8FYTvqgUU-21" target="4QHC4_HjXMX8FYTvqgUU-16" edge="1">
          <mxGeometry width="80" relative="1" as="geometry">
            <mxPoint x="120" y="1190" as="sourcePoint" />
            <mxPoint x="200" y="1190" as="targetPoint" />
          </mxGeometry>
        </mxCell>
        <mxCell id="4QHC4_HjXMX8FYTvqgUU-31" value="&lt;pre style=&quot;background-color: #2b2b2b ; color: #a9b7c6 ; font-family: &amp;#34;jetbrains mono&amp;#34; , monospace ; font-size: 13.5pt&quot;&gt;&lt;pre style=&quot;font-family: &amp;#34;jetbrains mono&amp;#34; , monospace ; font-size: 13.5pt&quot;&gt;configure&lt;/pre&gt;&lt;/pre&gt;" style="edgeStyle=orthogonalEdgeStyle;html=1;align=left;spacingLeft=2;endArrow=block;rounded=0;entryX=1;entryY=0;" parent="1" edge="1">
          <mxGeometry relative="1" as="geometry">
            <mxPoint x="5" y="1190" as="sourcePoint" />
            <Array as="points">
              <mxPoint x="35" y="1190" />
            </Array>
            <mxPoint x="10" y="1210" as="targetPoint" />
          </mxGeometry>
        </mxCell>
        <mxCell id="4QHC4_HjXMX8FYTvqgUU-32" value="&lt;pre style=&quot;background-color: #2b2b2b ; color: #a9b7c6 ; font-family: &amp;#34;jetbrains mono&amp;#34; , monospace ; font-size: 13.5pt&quot;&gt;&lt;pre style=&quot;font-family: &amp;#34;jetbrains mono&amp;#34; , monospace ; font-size: 13.5pt&quot;&gt;&lt;pre style=&quot;font-family: &amp;#34;jetbrains mono&amp;#34; , monospace ; font-size: 13.5pt&quot;&gt;performBuild&lt;/pre&gt;&lt;/pre&gt;&lt;/pre&gt;" style="edgeStyle=orthogonalEdgeStyle;html=1;align=left;spacingLeft=2;endArrow=block;rounded=0;entryX=1;entryY=0;" parent="1" edge="1">
          <mxGeometry relative="1" as="geometry">
            <mxPoint x="5" y="1230" as="sourcePoint" />
            <Array as="points">
              <mxPoint x="35" y="1230" />
            </Array>
            <mxPoint x="10" y="1250" as="targetPoint" />
          </mxGeometry>
        </mxCell>
        <mxCell id="4QHC4_HjXMX8FYTvqgUU-33" value="WebSecurityConfigurerAdapter" style="shape=umlLifeline;participant=umlEntity;perimeter=lifelinePerimeter;whiteSpace=wrap;html=1;container=1;collapsible=0;recursiveResize=0;verticalAlign=top;spacingTop=36;outlineConnect=0;" parent="1" vertex="1">
          <mxGeometry x="-200" y="1870" width="40" height="580" as="geometry" />
        </mxCell>
        <mxCell id="4QHC4_HjXMX8FYTvqgUU-39" value="" style="html=1;points=[];perimeter=orthogonalPerimeter;" parent="4QHC4_HjXMX8FYTvqgUU-33" vertex="1">
          <mxGeometry x="15" y="190" width="10" height="40" as="geometry" />
        </mxCell>
        <mxCell id="4QHC4_HjXMX8FYTvqgUU-40" value="init" style="edgeStyle=orthogonalEdgeStyle;html=1;align=left;spacingLeft=2;endArrow=block;rounded=0;entryX=1;entryY=0;" parent="4QHC4_HjXMX8FYTvqgUU-33" target="4QHC4_HjXMX8FYTvqgUU-39" edge="1">
          <mxGeometry relative="1" as="geometry">
            <mxPoint x="15" y="170" as="sourcePoint" />
            <Array as="points">
              <mxPoint x="45" y="170" />
            </Array>
          </mxGeometry>
        </mxCell>
        <mxCell id="4QHC4_HjXMX8FYTvqgUU-35" value="WebSecurityConfigurer" style="shape=umlLifeline;participant=umlEntity;perimeter=lifelinePerimeter;whiteSpace=wrap;html=1;container=1;collapsible=0;recursiveResize=0;verticalAlign=top;spacingTop=36;outlineConnect=0;" parent="1" vertex="1">
          <mxGeometry x="100" y="1870" width="40" height="580" as="geometry" />
        </mxCell>
        <mxCell id="4QHC4_HjXMX8FYTvqgUU-37" value="SecurityConfigurer" style="shape=umlLifeline;participant=umlEntity;perimeter=lifelinePerimeter;whiteSpace=wrap;html=1;container=1;collapsible=0;recursiveResize=0;verticalAlign=top;spacingTop=36;outlineConnect=0;" parent="1" vertex="1">
          <mxGeometry x="394" y="1870" width="40" height="580" as="geometry" />
        </mxCell>
        <mxCell id="4QHC4_HjXMX8FYTvqgUU-44" style="edgeStyle=orthogonalEdgeStyle;rounded=0;orthogonalLoop=1;jettySize=auto;html=1;entryX=0.108;entryY=0.255;entryDx=0;entryDy=0;entryPerimeter=0;curved=1;" parent="1" source="4QHC4_HjXMX8FYTvqgUU-41" target="4QHC4_HjXMX8FYTvqgUU-42" edge="1">
          <mxGeometry relative="1" as="geometry" />
        </mxCell>
        <mxCell id="4QHC4_HjXMX8FYTvqgUU-41" value="Actor" style="shape=umlActor;verticalLabelPosition=bottom;verticalAlign=top;html=1;" parent="1" vertex="1">
          <mxGeometry x="-110" y="2880" width="30" height="60" as="geometry" />
        </mxCell>
        <mxCell id="4QHC4_HjXMX8FYTvqgUU-43" value="" style="rounded=1;whiteSpace=wrap;html=1;" parent="1" vertex="1">
          <mxGeometry x="135" y="2770" width="390" height="100" as="geometry" />
        </mxCell>
        <mxCell id="4QHC4_HjXMX8FYTvqgUU-45" value="username&lt;br&gt;password" style="shape=lineEllipse;perimeter=ellipsePerimeter;whiteSpace=wrap;html=1;backgroundOutline=1;" parent="1" vertex="1">
          <mxGeometry x="-50" y="2790" width="60" height="60" as="geometry" />
        </mxCell>
        <mxCell id="4QHC4_HjXMX8FYTvqgUU-62" style="edgeStyle=orthogonalEdgeStyle;curved=1;rounded=0;orthogonalLoop=1;jettySize=auto;html=1;entryX=0.5;entryY=0;entryDx=0;entryDy=0;" parent="1" source="4QHC4_HjXMX8FYTvqgUU-47" target="4QHC4_HjXMX8FYTvqgUU-61" edge="1">
          <mxGeometry relative="1" as="geometry" />
        </mxCell>
        <mxCell id="4QHC4_HjXMX8FYTvqgUU-47" value="UsernamePasswordAuthenticationFilter" style="rounded=1;whiteSpace=wrap;html=1;" parent="1" vertex="1">
          <mxGeometry x="-20" y="3240" width="660" height="100" as="geometry" />
        </mxCell>
        <mxCell id="4QHC4_HjXMX8FYTvqgUU-50" style="edgeStyle=orthogonalEdgeStyle;curved=1;rounded=0;orthogonalLoop=1;jettySize=auto;html=1;" parent="1" source="4QHC4_HjXMX8FYTvqgUU-48" target="4QHC4_HjXMX8FYTvqgUU-49" edge="1">
          <mxGeometry relative="1" as="geometry" />
        </mxCell>
        <mxCell id="4QHC4_HjXMX8FYTvqgUU-48" value="登录" style="ellipse;whiteSpace=wrap;html=1;" parent="1" vertex="1">
          <mxGeometry x="880" y="2680" width="120" height="80" as="geometry" />
        </mxCell>
        <mxCell id="4QHC4_HjXMX8FYTvqgUU-52" value="是" style="edgeStyle=orthogonalEdgeStyle;curved=1;rounded=0;orthogonalLoop=1;jettySize=auto;html=1;" parent="1" source="4QHC4_HjXMX8FYTvqgUU-49" target="4QHC4_HjXMX8FYTvqgUU-51" edge="1">
          <mxGeometry relative="1" as="geometry" />
        </mxCell>
        <mxCell id="4QHC4_HjXMX8FYTvqgUU-60" value="否" style="edgeStyle=orthogonalEdgeStyle;curved=1;rounded=0;orthogonalLoop=1;jettySize=auto;html=1;" parent="1" source="4QHC4_HjXMX8FYTvqgUU-49" target="4QHC4_HjXMX8FYTvqgUU-59" edge="1">
          <mxGeometry relative="1" as="geometry" />
        </mxCell>
        <mxCell id="4QHC4_HjXMX8FYTvqgUU-49" value="验证是否是拦截接口" style="rhombus;whiteSpace=wrap;html=1;" parent="1" vertex="1">
          <mxGeometry x="900" y="2830" width="80" height="80" as="geometry" />
        </mxCell>
        <mxCell id="4QHC4_HjXMX8FYTvqgUU-91" style="edgeStyle=orthogonalEdgeStyle;curved=1;rounded=0;orthogonalLoop=1;jettySize=auto;html=1;entryX=0;entryY=0.5;entryDx=0;entryDy=0;" parent="1" source="4QHC4_HjXMX8FYTvqgUU-51" target="4QHC4_HjXMX8FYTvqgUU-71" edge="1">
          <mxGeometry relative="1" as="geometry" />
        </mxCell>
        <mxCell id="4QHC4_HjXMX8FYTvqgUU-51" value="认证" style="rounded=1;whiteSpace=wrap;html=1;" parent="1" vertex="1">
          <mxGeometry x="880" y="3000" width="120" height="60" as="geometry" />
        </mxCell>
        <mxCell id="4QHC4_HjXMX8FYTvqgUU-95" style="edgeStyle=orthogonalEdgeStyle;curved=1;rounded=0;orthogonalLoop=1;jettySize=auto;html=1;entryX=0;entryY=0.5;entryDx=0;entryDy=0;" parent="1" source="4QHC4_HjXMX8FYTvqgUU-53" target="4QHC4_HjXMX8FYTvqgUU-94" edge="1">
          <mxGeometry relative="1" as="geometry" />
        </mxCell>
        <mxCell id="4QHC4_HjXMX8FYTvqgUU-53" value="处理session(主要服务存储session)" style="rounded=1;whiteSpace=wrap;html=1;" parent="1" vertex="1">
          <mxGeometry x="880" y="3110" width="120" height="60" as="geometry" />
        </mxCell>
        <mxCell id="4QHC4_HjXMX8FYTvqgUU-55" value="跳转成功页面" style="rounded=1;whiteSpace=wrap;html=1;" parent="1" vertex="1">
          <mxGeometry x="880" y="3300" width="120" height="60" as="geometry" />
        </mxCell>
        <mxCell id="4QHC4_HjXMX8FYTvqgUU-56" value="跳转失败页面" style="rounded=1;whiteSpace=wrap;html=1;" parent="1" vertex="1">
          <mxGeometry x="1250" y="3065" width="120" height="60" as="geometry" />
        </mxCell>
        <mxCell id="4QHC4_HjXMX8FYTvqgUU-59" value="结束" style="whiteSpace=wrap;html=1;" parent="1" vertex="1">
          <mxGeometry x="1040" y="2840" width="120" height="60" as="geometry" />
        </mxCell>
        <mxCell id="4QHC4_HjXMX8FYTvqgUU-64" style="edgeStyle=orthogonalEdgeStyle;curved=1;rounded=0;orthogonalLoop=1;jettySize=auto;html=1;" parent="1" source="4QHC4_HjXMX8FYTvqgUU-61" target="4QHC4_HjXMX8FYTvqgUU-63" edge="1">
          <mxGeometry relative="1" as="geometry" />
        </mxCell>
        <mxCell id="4QHC4_HjXMX8FYTvqgUU-61" value="&lt;pre style=&quot;background-color: #2b2b2b ; color: #a9b7c6 ; font-family: &amp;#34;jetbrains mono&amp;#34; , monospace ; font-size: 13.5pt&quot;&gt;AuthenticationManager&lt;/pre&gt;" style="rounded=1;whiteSpace=wrap;html=1;" parent="1" vertex="1">
          <mxGeometry x="-20" y="3407" width="660" height="100" as="geometry" />
        </mxCell>
        <mxCell id="4QHC4_HjXMX8FYTvqgUU-66" style="edgeStyle=orthogonalEdgeStyle;curved=1;rounded=0;orthogonalLoop=1;jettySize=auto;html=1;entryX=0.5;entryY=0;entryDx=0;entryDy=0;" parent="1" source="4QHC4_HjXMX8FYTvqgUU-63" target="4QHC4_HjXMX8FYTvqgUU-65" edge="1">
          <mxGeometry relative="1" as="geometry" />
        </mxCell>
        <mxCell id="4QHC4_HjXMX8FYTvqgUU-63" value="&lt;pre style=&quot;background-color: #2b2b2b ; color: #a9b7c6 ; font-family: &amp;#34;jetbrains mono&amp;#34; , monospace ; font-size: 13.5pt&quot;&gt;DaoAuthenticationProvider&lt;/pre&gt;" style="rounded=1;whiteSpace=wrap;html=1;" parent="1" vertex="1">
          <mxGeometry x="-20" y="3590" width="660" height="100" as="geometry" />
        </mxCell>
        <mxCell id="4QHC4_HjXMX8FYTvqgUU-67" value="不存在时" style="edgeStyle=orthogonalEdgeStyle;curved=1;rounded=0;orthogonalLoop=1;jettySize=auto;html=1;" parent="1" source="4QHC4_HjXMX8FYTvqgUU-65" edge="1">
          <mxGeometry relative="1" as="geometry">
            <mxPoint x="310" y="3890" as="targetPoint" />
          </mxGeometry>
        </mxCell>
        <mxCell id="4QHC4_HjXMX8FYTvqgUU-65" value="&lt;pre style=&quot;background-color: #2b2b2b ; color: #a9b7c6 ; font-family: &amp;#34;jetbrains mono&amp;#34; , monospace ; font-size: 13.5pt&quot;&gt;&lt;span style=&quot;color: #9876aa&quot;&gt;userCache&lt;/span&gt;&lt;/pre&gt;" style="rounded=1;whiteSpace=wrap;html=1;" parent="1" vertex="1">
          <mxGeometry x="250" y="3750" width="120" height="60" as="geometry" />
        </mxCell>
        <mxCell id="4QHC4_HjXMX8FYTvqgUU-70" style="edgeStyle=orthogonalEdgeStyle;curved=1;rounded=0;orthogonalLoop=1;jettySize=auto;html=1;" parent="1" source="4QHC4_HjXMX8FYTvqgUU-68" target="4QHC4_HjXMX8FYTvqgUU-69" edge="1">
          <mxGeometry relative="1" as="geometry" />
        </mxCell>
        <mxCell id="4QHC4_HjXMX8FYTvqgUU-68" value="&lt;pre style=&quot;background-color: #2b2b2b ; color: #a9b7c6 ; font-family: &amp;#34;jetbrains mono&amp;#34; , monospace ; font-size: 13.5pt&quot;&gt;&lt;pre style=&quot;font-family: &amp;#34;jetbrains mono&amp;#34; , monospace ; font-size: 13.5pt&quot;&gt;&lt;span style=&quot;color: #ffc66d&quot;&gt;retrieveUser&lt;/span&gt;&lt;/pre&gt;&lt;/pre&gt;" style="rounded=1;whiteSpace=wrap;html=1;" parent="1" vertex="1">
          <mxGeometry x="250" y="3890" width="120" height="60" as="geometry" />
        </mxCell>
        <mxCell id="4QHC4_HjXMX8FYTvqgUU-69" value="&lt;pre style=&quot;background-color: #2b2b2b ; color: #a9b7c6 ; font-family: &amp;#34;jetbrains mono&amp;#34; , monospace ; font-size: 13.5pt&quot;&gt;&lt;pre style=&quot;font-family: &amp;#34;jetbrains mono&amp;#34; , monospace ; font-size: 13.5pt&quot;&gt;UserDetailsService#loadUserByUsername&lt;/pre&gt;&lt;/pre&gt;" style="rounded=1;whiteSpace=wrap;html=1;" parent="1" vertex="1">
          <mxGeometry x="-20" y="4042" width="660" height="100" as="geometry" />
        </mxCell>
        <mxCell id="4QHC4_HjXMX8FYTvqgUU-73" style="edgeStyle=orthogonalEdgeStyle;curved=1;rounded=0;orthogonalLoop=1;jettySize=auto;html=1;" parent="1" source="4QHC4_HjXMX8FYTvqgUU-71" target="4QHC4_HjXMX8FYTvqgUU-72" edge="1">
          <mxGeometry relative="1" as="geometry" />
        </mxCell>
        <mxCell id="4QHC4_HjXMX8FYTvqgUU-71" value="认证" style="ellipse;whiteSpace=wrap;html=1;" parent="1" vertex="1">
          <mxGeometry x="1870" y="2680" width="120" height="80" as="geometry" />
        </mxCell>
        <mxCell id="4QHC4_HjXMX8FYTvqgUU-77" style="edgeStyle=orthogonalEdgeStyle;curved=1;rounded=0;orthogonalLoop=1;jettySize=auto;html=1;entryX=0.5;entryY=0;entryDx=0;entryDy=0;" parent="1" source="4QHC4_HjXMX8FYTvqgUU-72" target="4QHC4_HjXMX8FYTvqgUU-74" edge="1">
          <mxGeometry relative="1" as="geometry" />
        </mxCell>
        <mxCell id="4QHC4_HjXMX8FYTvqgUU-72" value="&lt;span&gt;UsernamePasswordAuthenticationFilter&lt;br&gt;#attemptAuthentication&lt;br&gt;&lt;/span&gt;" style="rounded=1;whiteSpace=wrap;html=1;" parent="1" vertex="1">
          <mxGeometry x="1800" y="2823" width="260" height="100" as="geometry" />
        </mxCell>
        <mxCell id="4QHC4_HjXMX8FYTvqgUU-78" value="proxy" style="edgeStyle=orthogonalEdgeStyle;curved=1;rounded=0;orthogonalLoop=1;jettySize=auto;html=1;entryX=0.5;entryY=0;entryDx=0;entryDy=0;" parent="1" source="4QHC4_HjXMX8FYTvqgUU-74" target="4QHC4_HjXMX8FYTvqgUU-76" edge="1">
          <mxGeometry relative="1" as="geometry" />
        </mxCell>
        <mxCell id="4QHC4_HjXMX8FYTvqgUU-74" value="&lt;span&gt;AuthenticationManager&lt;br&gt;#authenticate&lt;br&gt;&lt;/span&gt;" style="rounded=1;whiteSpace=wrap;html=1;" parent="1" vertex="1">
          <mxGeometry x="1800" y="3000" width="260" height="100" as="geometry" />
        </mxCell>
        <mxCell id="4QHC4_HjXMX8FYTvqgUU-75" value="&lt;pre style=&quot;background-color: #2b2b2b ; color: #a9b7c6 ; font-family: &amp;#34;jetbrains mono&amp;#34; , monospace ; font-size: 13.5pt&quot;&gt;ProviderManager&lt;/pre&gt;" style="text;html=1;align=center;verticalAlign=middle;resizable=0;points=[];autosize=1;strokeColor=none;fillColor=none;" parent="1" vertex="1">
          <mxGeometry x="2060" y="3020" width="150" height="60" as="geometry" />
        </mxCell>
        <mxCell id="4QHC4_HjXMX8FYTvqgUU-79" style="edgeStyle=orthogonalEdgeStyle;curved=1;rounded=0;orthogonalLoop=1;jettySize=auto;html=1;" parent="1" source="4QHC4_HjXMX8FYTvqgUU-76" edge="1">
          <mxGeometry relative="1" as="geometry">
            <mxPoint x="1930" y="3370" as="targetPoint" />
          </mxGeometry>
        </mxCell>
        <mxCell id="4QHC4_HjXMX8FYTvqgUU-76" value="&lt;span&gt;DaoAuthenticationProvider&lt;br&gt;#authenticate&lt;br&gt;&lt;/span&gt;" style="rounded=1;whiteSpace=wrap;html=1;" parent="1" vertex="1">
          <mxGeometry x="1800" y="3180" width="260" height="100" as="geometry" />
        </mxCell>
        <mxCell id="4QHC4_HjXMX8FYTvqgUU-82" value="未命中" style="edgeStyle=orthogonalEdgeStyle;curved=1;rounded=0;orthogonalLoop=1;jettySize=auto;html=1;" parent="1" source="4QHC4_HjXMX8FYTvqgUU-80" target="4QHC4_HjXMX8FYTvqgUU-81" edge="1">
          <mxGeometry relative="1" as="geometry" />
        </mxCell>
        <mxCell id="4QHC4_HjXMX8FYTvqgUU-84" style="edgeStyle=orthogonalEdgeStyle;curved=1;rounded=0;orthogonalLoop=1;jettySize=auto;html=1;" parent="1" source="4QHC4_HjXMX8FYTvqgUU-80" target="4QHC4_HjXMX8FYTvqgUU-83" edge="1">
          <mxGeometry relative="1" as="geometry" />
        </mxCell>
        <mxCell id="4QHC4_HjXMX8FYTvqgUU-85" value="命中" style="edgeLabel;html=1;align=center;verticalAlign=middle;resizable=0;points=[];" parent="4QHC4_HjXMX8FYTvqgUU-84" vertex="1" connectable="0">
          <mxGeometry x="-0.1158" y="3" relative="1" as="geometry">
            <mxPoint as="offset" />
          </mxGeometry>
        </mxCell>
        <mxCell id="4QHC4_HjXMX8FYTvqgUU-80" value="userCache" style="rhombus;whiteSpace=wrap;html=1;" parent="1" vertex="1">
          <mxGeometry x="1890" y="3370" width="80" height="80" as="geometry" />
        </mxCell>
        <mxCell id="4QHC4_HjXMX8FYTvqgUU-87" style="edgeStyle=orthogonalEdgeStyle;curved=1;rounded=0;orthogonalLoop=1;jettySize=auto;html=1;" parent="1" source="4QHC4_HjXMX8FYTvqgUU-81" target="4QHC4_HjXMX8FYTvqgUU-86" edge="1">
          <mxGeometry relative="1" as="geometry" />
        </mxCell>
        <mxCell id="4QHC4_HjXMX8FYTvqgUU-81" value="&lt;span&gt;UserDetailsService&lt;br&gt;#loadUserByUsername&lt;br&gt;&lt;/span&gt;" style="rounded=1;whiteSpace=wrap;html=1;" parent="1" vertex="1">
          <mxGeometry x="1800" y="3560" width="260" height="100" as="geometry" />
        </mxCell>
        <mxCell id="4QHC4_HjXMX8FYTvqgUU-83" value="&lt;span&gt;验证用户状态（userdetail多种状态属性）&lt;br&gt;&lt;/span&gt;" style="rounded=1;whiteSpace=wrap;html=1;" parent="1" vertex="1">
          <mxGeometry x="2160" y="3360" width="260" height="100" as="geometry" />
        </mxCell>
        <mxCell id="4QHC4_HjXMX8FYTvqgUU-86" value="&lt;span&gt;验证用户状态（userdetail多种状态属性）&lt;br&gt;&lt;/span&gt;" style="rounded=1;whiteSpace=wrap;html=1;" parent="1" vertex="1">
          <mxGeometry x="1800" y="3730" width="260" height="100" as="geometry" />
        </mxCell>
        <mxCell id="4QHC4_HjXMX8FYTvqgUU-89" value="&lt;span&gt;认证后用户details拷贝并清楚用户主体信息中提交的明文密码并发布对应事件&lt;br&gt;&lt;/span&gt;" style="rounded=1;whiteSpace=wrap;html=1;" parent="1" vertex="1">
          <mxGeometry x="1955" y="3950" width="260" height="100" as="geometry" />
        </mxCell>
        <mxCell id="4QHC4_HjXMX8FYTvqgUU-92" value="&lt;pre style=&quot;background-color: #2b2b2b ; color: #a9b7c6 ; font-family: &amp;#34;jetbrains mono&amp;#34; , monospace ; font-size: 13.5pt&quot;&gt;CompositeSessionAuthenticationStrategy&lt;/pre&gt;" style="text;html=1;align=center;verticalAlign=middle;resizable=0;points=[];autosize=1;strokeColor=none;fillColor=none;" parent="1" vertex="1">
          <mxGeometry x="1294" y="3190" width="360" height="60" as="geometry" />
        </mxCell>
        <mxCell id="WfySFtOXm27eFh4Pmqys-4" style="edgeStyle=orthogonalEdgeStyle;rounded=0;orthogonalLoop=1;jettySize=auto;html=1;curved=1;" parent="1" source="WfySFtOXm27eFh4Pmqys-1" target="WfySFtOXm27eFh4Pmqys-2" edge="1">
          <mxGeometry relative="1" as="geometry" />
        </mxCell>
        <mxCell id="WfySFtOXm27eFh4Pmqys-5" value="①访问http://www.zxhtom.com/gittom/index.html" style="edgeLabel;html=1;align=center;verticalAlign=middle;resizable=0;points=[];" parent="WfySFtOXm27eFh4Pmqys-4" vertex="1" connectable="0">
          <mxGeometry x="-0.3063" y="5" relative="1" as="geometry">
            <mxPoint as="offset" />
          </mxGeometry>
        </mxCell>
        <mxCell id="WfySFtOXm27eFh4Pmqys-1" value="" style="shape=actor;whiteSpace=wrap;html=1;fillColor=#d5e8d4;strokeColor=#82b366;" parent="1" vertex="1">
          <mxGeometry x="-670" y="4450" width="40" height="60" as="geometry" />
        </mxCell>
        <mxCell id="WfySFtOXm27eFh4Pmqys-6" value="②重定向到认证服务/oauth/authorize" style="edgeStyle=orthogonalEdgeStyle;curved=1;rounded=0;orthogonalLoop=1;jettySize=auto;html=1;" parent="1" source="WfySFtOXm27eFh4Pmqys-2" target="WfySFtOXm27eFh4Pmqys-3" edge="1">
          <mxGeometry relative="1" as="geometry" />
        </mxCell>
        <mxCell id="WfySFtOXm27eFh4Pmqys-2" value="应用" style="rounded=0;whiteSpace=wrap;html=1;fillColor=#ffe6cc;strokeColor=#d79b00;" parent="1" vertex="1">
          <mxGeometry x="-470" y="4240" width="350" height="180" as="geometry" />
        </mxCell>
        <mxCell id="WfySFtOXm27eFh4Pmqys-8" value="④重定向到应用服务，接收code接口" style="edgeStyle=orthogonalEdgeStyle;curved=1;rounded=0;orthogonalLoop=1;jettySize=auto;html=1;entryX=0.5;entryY=0;entryDx=0;entryDy=0;" parent="1" source="WfySFtOXm27eFh4Pmqys-3" target="WfySFtOXm27eFh4Pmqys-2" edge="1">
          <mxGeometry relative="1" as="geometry">
            <Array as="points">
              <mxPoint x="270" y="4220" />
              <mxPoint x="-295" y="4220" />
            </Array>
          </mxGeometry>
        </mxCell>
        <mxCell id="WfySFtOXm27eFh4Pmqys-3" value="认证服务器（gittom）" style="rounded=0;whiteSpace=wrap;html=1;fillColor=#f8cecc;strokeColor=#b85450;" parent="1" vertex="1">
          <mxGeometry x="90" y="4240" width="350" height="180" as="geometry" />
        </mxCell>
        <mxCell id="WfySFtOXm27eFh4Pmqys-7" value="③验证clientId等合法性" style="edgeStyle=orthogonalEdgeStyle;curved=1;rounded=0;orthogonalLoop=1;jettySize=auto;html=1;" parent="1" source="WfySFtOXm27eFh4Pmqys-3" target="WfySFtOXm27eFh4Pmqys-3" edge="1">
          <mxGeometry x="0.3333" y="-50" relative="1" as="geometry">
            <mxPoint x="50" y="50" as="offset" />
          </mxGeometry>
        </mxCell>
        <mxCell id="WfySFtOXm27eFh4Pmqys-9" value="" style="endArrow=classic;html=1;rounded=0;curved=1;exitX=1;exitY=0.75;exitDx=0;exitDy=0;entryX=0;entryY=0.75;entryDx=0;entryDy=0;" parent="1" source="WfySFtOXm27eFh4Pmqys-2" target="WfySFtOXm27eFh4Pmqys-3" edge="1">
          <mxGeometry width="50" height="50" relative="1" as="geometry">
            <mxPoint x="-140" y="4460" as="sourcePoint" />
            <mxPoint x="-90" y="4410" as="targetPoint" />
          </mxGeometry>
        </mxCell>
        <mxCell id="WfySFtOXm27eFh4Pmqys-11" value="⑤根据code访问认证服务器&lt;br&gt;获取access_token、refresh_token" style="edgeLabel;html=1;align=center;verticalAlign=middle;resizable=0;points=[];" parent="WfySFtOXm27eFh4Pmqys-9" vertex="1" connectable="0">
          <mxGeometry x="-0.1333" y="-1" relative="1" as="geometry">
            <mxPoint as="offset" />
          </mxGeometry>
        </mxCell>
        <mxCell id="WfySFtOXm27eFh4Pmqys-10" value="④~⑤" style="endArrow=none;dashed=1;html=1;dashPattern=1 3;strokeWidth=2;rounded=0;curved=1;exitX=0.5;exitY=0;exitDx=0;exitDy=0;entryX=1;entryY=0.75;entryDx=0;entryDy=0;" parent="1" source="WfySFtOXm27eFh4Pmqys-2" target="WfySFtOXm27eFh4Pmqys-2" edge="1">
          <mxGeometry width="50" height="50" relative="1" as="geometry">
            <mxPoint x="-140" y="4460" as="sourcePoint" />
            <mxPoint x="-90" y="4410" as="targetPoint" />
          </mxGeometry>
        </mxCell>
        <mxCell id="WfySFtOXm27eFh4Pmqys-12" value="后续和认证服务交互只需要access_token和refresh_token即可。完成应用服务的鉴权功能" style="text;html=1;strokeColor=#9673a6;fillColor=#e1d5e7;align=center;verticalAlign=middle;whiteSpace=wrap;rounded=0;" parent="1" vertex="1">
          <mxGeometry x="-180" y="4480" width="545" height="90" as="geometry" />
        </mxCell>
        <mxCell id="m3yvCEcCqd-XtSE1qIoY-1" value="yapai" style="rounded=0;whiteSpace=wrap;html=1;sketch=1;hachureGap=4;jiggle=2;curveFitting=1;fontFamily=Architects Daughter;fontSource=https%3A%2F%2Ffonts.googleapis.com%2Fcss%3Ffamily%3DArchitects%2BDaughter;fontSize=20;fillColor=#dae8fc;strokeColor=#6c8ebf;" vertex="1" parent="1">
          <mxGeometry x="-473" y="4890" width="223" height="410" as="geometry" />
        </mxCell>
        <mxCell id="m3yvCEcCqd-XtSE1qIoY-2" value="wechat" style="rounded=0;whiteSpace=wrap;html=1;sketch=1;hachureGap=4;jiggle=2;curveFitting=1;fontFamily=Architects Daughter;fontSource=https%3A%2F%2Ffonts.googleapis.com%2Fcss%3Ffamily%3DArchitects%2BDaughter;fontSize=20;fillColor=#d5e8d4;strokeColor=#82b366;" vertex="1" parent="1">
          <mxGeometry x="147" y="4890" width="223" height="410" as="geometry" />
        </mxCell>
        <mxCell id="m3yvCEcCqd-XtSE1qIoY-3" value="" style="shape=flexArrow;endArrow=classic;startArrow=classic;html=1;rounded=0;sketch=1;hachureGap=4;jiggle=2;curveFitting=1;fontFamily=Architects Daughter;fontSource=https%3A%2F%2Ffonts.googleapis.com%2Fcss%3Ffamily%3DArchitects%2BDaughter;fontSize=16;entryX=0.004;entryY=0.459;entryDx=0;entryDy=0;entryPerimeter=0;" edge="1" parent="1" target="m3yvCEcCqd-XtSE1qIoY-2">
          <mxGeometry width="100" height="100" relative="1" as="geometry">
            <mxPoint x="-260" y="5080" as="sourcePoint" />
            <mxPoint x="-110" y="4920" as="targetPoint" />
          </mxGeometry>
        </mxCell>
        <mxCell id="m3yvCEcCqd-XtSE1qIoY-4" value="Token" style="text;strokeColor=none;fillColor=none;html=1;fontSize=20;fontStyle=1;verticalAlign=middle;align=center;fontFamily=Architects Daughter;" vertex="1" parent="1">
          <mxGeometry x="-110" y="5040" width="100" height="40" as="geometry" />
        </mxCell>
      </root>
    </mxGraphModel>
  </diagram>
</mxfile>
